<svg version="1.1" viewBox="0 0 500 500" xmlns="http://www.w3.org/2000/svg">
 <path d="m494 200c0 134.76-89 294-244 294s-244-159.24-244-294 109.24-194 244-194 244 59.24 244 194z" fill="#991a33"/>
 <path d="m11 200c0 157.65 92.118 290 239 290 154.34 0 239-165 239-290 0-151.28-116.57-191-239-191-124.21 0-239 58.55-239 191z" fill="#fafafa"/>
 <path d="m100 130-20 47.99 126 126.01-85.613 68.41 117.31 117.29c5.654 0.31 6.534 0.3 12.3 0.3 154.68 0 239.1-164.04 239.1-289.98v-0.04c0.05-4.706-0.253-10.58-0.5-15.28l-68.6-68.7z" fill="#e6e6e6"/>
 <path d="m420 116-24.42 55.414 87.72 87.786c5.81-28.235 6.504-55.273 5.3-74.5zm-214 188 153.9 153.9c33.12-20.91 58.75-51.294 74.9-76.3l-60.82-60.85-13.98 33.25-125-85z" fill="#d1d1d1"/>
 <path d="m80 116h340v61.99l-24.42-6.575v-21.6q-0.94-11.27-16.905-11.27-19.724-1.88-38.51 16.907l-67.625 79.834 62.93 93.92c.94 1.88 20.664 25.36 38.51-8.45l5.635 11.27c-11.27 58.23-64.806 55.414-94.86 13.15l-46.96-69.5-46.02 55.414c-15.03 21.6 12.21 23.48 20.66 25.36l3.76 15.97h-95.8l3.76-15.97q30.055-11.27 44.14-30.994l54.475-66.686-67.624-98.62q-13.15-22.54-32.87-21.6-18.784 0-17.845 14.09v18.784l-24.42 6.575z"/>
 <path d="m297 138.54c14.544 0 19.326 8.45 11.2 18.76l-51.6 61-42.3-63.8c-5.56-9.39-1.61-15.96 9.4-15.96" fill="#d6d6d6"/>
</svg>