<svg width="500" height="500" version="1.1" viewBox="0 0 132.29 132.29" xmlns="http://www.w3.org/2000/svg"><g transform="translate(-103.48 -75.252)"><path d="m142.17 75.253v38.691h-38.691v54.913h38.691v38.686h54.909v-38.686h38.691v-54.913h-38.691v-38.691z" fill="#6fc"/><path d="m235.77 172.96-34.583 34.586-31.563-31.564-31.562 31.564-34.583-34.586 31.562-31.564-31.554-31.556 34.583-34.586 31.554 31.556 31.554-31.556 34.583 34.586-31.554 31.556z" fill="#903"/><path d="m142.17 79.351v34.593h-34.578l27.449 27.449-27.465 27.464h34.593v34.577l27.454-27.454 27.454 27.454v-34.577h34.593l-27.464-27.464 27.449-27.449h-34.578v-34.593l-27.454 27.459z"/><path d="m142.17 141.4c0-15.164 12.293-27.457 27.457-27.457 15.164 0 27.457 12.292 27.457 27.457 0 15.164-12.293 27.457-27.457 27.457-15.164 0-27.457-12.293-27.457-27.457z" fill="#fff"/></g></svg>
