<svg version="1.1" viewBox="0 0 500 500" xmlns="http://www.w3.org/2000/svg"><style>@media (prefers-color-scheme:dark){#p1{fill:#eee}#p2,#p4{fill:#f9f9f9}#p3{fill:#666}}</style><path id="p1" d="m246 6c-114.4 0-240 42.3-240 180.3 0 99.4 32.6 177.4 91.5 239 39 41 95 68.7 156.5 68.7 138 0 240-130 240-300 0-53.7-20-91.6-49-120.7-47.7-48.5-125-67.3-199-67.3z" fill="#666"/><path id="p2" d="m250 10.3q245 1 240 200c-1 77-50 275-240 280-45 0-198-15-237-250q-28-227 237-230" fill="#999"/><path id="p3" d="m69 111.3h362v66l-26-7v-23q-1-12-18-12-21-2-41 18l-72 85 67 100c1 2 22 27 41-9l6 12c-12 62-69 59-101 14l-50-74-49 59c-16 23 13 25 22 27l4 17h-102l4-17q32-12 47-33l58-71-72-105q-14-24-35-23-20 0-19 15v20l-26 7z" fill="#fff"/><path id="p4" d="m222 135.3h78q23 2 12 20l-55 65-45-68q-8-15 10-17" fill="#999"/></svg>