<svg version="1.1" viewBox="0 0 500 500" xmlns="http://www.w3.org/2000/svg">
 <path d="m494 200c0 134.76-89 294-244 294s-244-159.24-244-294 109.24-194 244-194 244 59.24 244 194z"/>
 <path d="m11 200c0 157.65 92.118 290 239 290 154.34 0 239-164.99 239-290 0-151.28-116.57-191-239-191-124.21 0-239 58.55-239 191z" fill="#fafafa"/>
 <path d="m431 111.3-95 18.7h-241l-26 47.193 132.05 132.05-41.05 55.756-48 19.3 102.98 102.98c11.306 1.727 22.955 2.723 35.02 2.723 66.646 0 120.27-30.8 159.72-75.82 5.29-6.14 10.393-12.527 15.28-19.18 4.53-6.17 8.79-12.536 12.863-19.02 1.02-1.64 2.06-3.27 3.05-4.93 .57-.947 1.115-1.91 1.676-2.86 30.51-52.46 46.404-114.04 46.41-168.14v-.04-2e-3 -4e-3c0-10.855-.67-21.07-1.83-30.8l-56.17-57.894z" fill="#e6e6e6"/>
 <path d="m431 111.24v66l-26-7 79.484 81.354c2.267-13.43 3.724-26.74 4.264-39.69 .155-3.977 .25-7.946 .25-11.9 0-10.856-.67-21.07-1.83-30.8l-56.17-57.96zm-184 143.76-45 53.5 152.34 152.58c20.847-12.55 39.39-28.62 55.55-47.094 5.236-6.073 10.274-12.406 15.11-18.99 3.23-4.396 6.3-8.905 9.3-13.465l-52.3-52.3-3.994 22.77-54 13-77-110z" fill="#d1d1d1"/>
 <path d="m69 111.3h362v66l-26-7v-23q-1-12-18-12-21-2-41 18l-72 85 67 100c1 2 22 27 41-9l6 12c-12 62-69 59-101 14l-50-74-49 59c-16 23 13 25 22 27l4 17h-102l4-17q32-12 47-33l58-71-72-105q-14-24-35-23-20 0-19 15v20l-26 7z" fill="#991a33"/>
 <path d="m222 135.3h78q23 2 12 20l-55 65-45-68q-8-15 10-17" fill="#d6d6d6"/>
</svg>