<svg width="400" height="400" version="1.1" viewBox="0 0 800 800" xmlns="http://www.w3.org/2000/svg">
 <g style="fill:none;stroke-linecap:round;stroke-linejoin:round;">
 <path d="m560 260 340 100-140-140 160-140-360-20v200l-180-140-260-40-360-20m760-200 40 200 180-120 180 140 160 200-320-60m-660 140-340-100 300-480 60 300m180 640 260 140m-620-920 180 140-160 140 140 140m-280 140 240 80 60 300 180-160-240-140 340-40 120 120 220 80 80 60m-440-680-100 160 160 100 180 120 120 240m-780-520 320 60 280-20 60 240-220 40-300-180 340 20m-320 500-180-140 120-160 40-220 180-80-160-200 180-160 260 140m-180 60 180-60 200 160-200 40-120 120-40 160-100 180 220-60 40 200 180-120 120-160-240-80-100 160" style="stroke-width:2;stroke:#001834"/>
 <path d="m620 500 240 180m-1040-180 480 360m-160-920 240 180m-80 600 40 100m-40-900 80 200m240 380 280-140m-1080 140 280-140 200 360 320-220 40-300-280-80-280 240 520 140-240-380-80 600 360-520 260-40m-540-40-520 80" style="stroke:#103254"/></g>
 <g style="fill:#026">
  <circle cx="300" cy="720" r="9"/>
  <circle cx="620" cy="500" r="9"/>
  <circle cx="100" cy="360" r="9"/>
  <circle cx="660" cy="200" r="9"/>
  <circle cx="380" cy="120" r="9"/>
  <circle cx="740" cy="740" r="5"/>
  <circle cx="520" cy="660" r="5"/>
  <circle cx="60" cy="580" r="5"/>
  <circle cx="400" cy="540" r="5"/>
  <circle cx="440" cy="380" r="5"/>
  <circle cx="280" cy="280" r="5"/>
  <circle cx="560" cy="260" r="5"/>
  <circle cx="760" cy="220" r="5"/>
  <circle cx="120" cy="80" r="5"/>
  <circle cx="560" cy="60" r="5"/>
 </g>
</svg>