<svg width="400" height="400" version="1.1" viewBox="0 0 400 400" xmlns="http://www.w3.org/2000/svg">
 <g style="fill:none;stroke-linecap:round;stroke-linejoin:round;">
  <path d="m270 119.84 170 50-70.5-70.128 80.5-70-180-10-0 100-90-70-130-20-180-10m380-100 20 100 90-60 90 70 80 100-160-30m-330 70-170-50 150-240 30 150m90 320 130 70m-310-460 90 70-80 70 70 70m-140 70 120 40 30 150 90-80-120-70 170-20 60 60 110 40 40 30m-220-340-50 80 80 50 90 60 60 120m-390-260 160 30 140-10 30 120-110 20-150-90 170 10m-160 250-90-70 60-80 20-110 90-40-80-100 90-80 130 70m-90 30 90-30 100 80-100 20-60 60-20 80-50 90 110-30 20 100 90-60 60-80-120-40-50 80" style="stroke-width:1;stroke:#14212e"/>
  <path d="m300 240 120 90m-520-90 240 180m-80-460 120 90m-40 300 20 50m-20-450 40 100m120 190 140-70m-540 70 140-70 100 180 160-110 20-150-140-40-140 120 260 70-120-190-40 300 180-260 130-20m-270-20-260 40" style="stroke-width:.5;stroke:#19344d"/>
 </g>
 <g style="fill:#172736">
  <circle cx="140" cy="350" r="5"/>
  <circle cx="300" cy="240" r="5"/>
  <circle cx="40" cy="170" r="5"/>
  <circle cx="320" cy="90" r="5"/>
  <circle cx="180" cy="50" r="5"/>
  <circle cx="360" cy="360" r="3"/>
  <circle cx="250" cy="320" r="3"/>
  <circle cx="20" cy="280" r="3"/>
  <circle cx="190" cy="260" r="3"/>
  <circle cx="210" cy="180" r="3"/>
  <circle cx="130" cy="130" r="3"/>
  <circle cx="270" cy="120" r="3"/>
  <circle cx="370" cy="100" r="3"/>
  <circle cx="50" cy="30" r="3"/>
  <circle cx="270" cy="20" r="3"/>
 </g>
</svg>