<svg aria-hidden="true" style="position: absolute; width: 0; height: 0; overflow: hidden" version="1.1" xmlns="http://www.w3.org/2000/svg" xmlns:xlink="http://www.w3.org/1999/xlink">
<defs>
<symbol id="icon-arrow-1" viewBox="-2 -2 36 36">
<desc>arrow-1</desc>
<path d="m16 0-2.8 2.8 11.2 11.2-24.4-0v4h24.4l-11.2 11.1 2.9 2.9 15.9-16z"/>
</symbol>
<symbol id="icon-arrow-2" viewBox="-2 -2 36 36">
<desc>arrow-2</desc>
<path d="M 16.08,0 11.82,4.23 20.54,13 H 0 v 6 H 20.56 L 11.83,27.77 16.08,32 32,16.02 Z"/>
</symbol>
<symbol id="icon-arrow-3" viewBox="-2 -2 36 36">
<desc>arrow-3</desc>
<path d="m20.12 4.07c-.45 0-.82 .37-.82 .82v5.38h-18.48c-.45 0-.82 .37-.82 .82v9.84c0 .45 .37 .82 .82 .82h18.48v5.38c0 .45 .36 .82 .82 .82 .29 0 .54-.15 .69-.38l10.96-10.97c.34-.42 .3-.86-.03-1.19l-10.93-10.94c-.15-.23-.4-.39-.69-.39z"/>
</symbol>
<symbol id="icon-undo" viewBox="-2 -2 36 36">
<desc>undo</desc>
<path d="m12.71 3.58v5.385h6.3c5.24 0 9.935 4.255 11.676 8.49 1.19 3.01 1.32 9.62 1.32 9.62 0 1.91-1.62 2.9-3.01 1.6-1.98-1.85-3.51-5.04-6.06-6.6-1.72-1.05-3.835-1.34-5.834-1.61-1.45-0.196-4.39 0-4.39 0v5.38c0 .455-.364 .82-.82 .82-.29 0-.53-.154-.76-.38l-10.9-10.98c-.03-.03-.17-.17-.22-.42-.05-.25 .04-.54 .25-.77l10.86-10.96c.21-.21 .47-.39 .84-.39 .37 0 .74 .37 .74 .82z"/>
</symbol>
<symbol id="icon-caret-u" viewBox="-2 -2 36 36">
<desc>caret-u</desc>
<path d="m15.14 2.51-15 25.98c-.38 .67 .1 1.5 .87 1.5h30c0.77 2e-4 1.25-0.83 0.87-1.5l-15-25.98c-.39-.67-1.35-.66-1.73 0z"/>
</symbol>
<symbol id="icon-caret-d" viewBox="-2 -2 36 36">
<desc>caret-d</desc>
<path d="m15.136 29.49-15-25.976c-.384-.67 .1-1.5 .867-1.5h30c.77-2e-4 1.25 .8326 .867 1.5l-15 25.976c-.385 .667-1.35 .66-1.73 0z"/>
</symbol>
<symbol id="icon-caret-l" viewBox="-2 -2 36 36">
<desc>caret-l</desc>
<path d="m2.51 16.86 26 15c0.67 .38 1.5-.1 1.5-.87v-30c0-.77-.83-1.25-1.5-.87l-26 15c-.67 .38-.66 1.35 0 1.73z"/>
</symbol>
<symbol id="icon-caret-r" viewBox="-2 -2 36 36">
<desc>caret-r</desc>
<path d="m29.49 16.864-25.98 15c-.67 .384-1.5-.1-1.5-.867v-30c0-.77 .83-1.25 1.5-.87l25.98 15c0.67 .385 .66 1.35 0 1.73z"/>
</symbol>
<symbol id="icon-caret-u-o" viewBox="-2 -2 36 36">
<desc>caret-u-o</desc>
<path d="m14.27 2.89-14 24.21c-0.77 1.33 0.19 3 1.73 3h27.99c1.54 9e-4 2.5-1.67 1.73-3l-14-24.21c-0.77-1.33-2.7-1.32-3.46 0zm1.73 4.99 10.53 18.22h-21.06z"/>
</symbol>
<symbol id="icon-caret-d-o" viewBox="-2 -2 36 36">
<desc>caret-d-o</desc>
<path d="m14.27 29.11-14-24.21c-.77-1.33 .19-3 1.73-3h28c1.54-9e-4 2.5 1.67 1.73 3l-14 24.21c-.77 1.33-2.7 1.32-3.46 0zm1.73-4.99 10.53-18.22h-21.06z"/>
</symbol>
<symbol id="icon-caret-l-o" viewBox="-2 -2 36 36">
<desc>caret-l-o</desc>
<path d="m1.894 15.998a2 2 0 0 1 1-1.73l24.216-14a2 2 0 0 1 3 1.73v28a2 2 0 0 1-3 1.73l-24.216-14a2 2 0 0 1-1-1.73zm6 0 18.22 10.53v-21.065z"/>
</symbol>
<symbol id="icon-caret-r-o" viewBox="-2 -2 36 36">
<desc>caret-r-o</desc>
<path d="m30.11 15.998a2 2 0 0 0-1-1.73l-24.216-14a2 2 0 0 0-3 1.73v28a2 2 0 0 0 3 1.73l24.216-14a2 2 0 0 0 1-1.73zm-6 0-18.22 10.53v-21.065z"/>
</symbol>
<symbol id="icon-arrow-4-o" viewBox="-2 -2 36 36">
<desc>arrow-4-o</desc>
<path d="m20.15 4c-.45 0-.82 .37-.82 .82v5.41h-18.51c-.45 0-.815 .37-.815 .83v9.89c0 .46 .36 .82 .82 .82h18.51v5.4c0 .46 .36 .83 .82 .83 .29 0 .54-.15 .69-.38l10.93-11.03c.03-.03 .17-.17 .22-.42 .05-.25-.03-.54-.25-.77l-10.9-11c-.15-.23-.4-.39-.69-.39zm.67 2.55 9.36 9.45-9.36 9.44v-3.7c0-.75-.74-1.49-1.48-1.49h-17.85v-8.55h17.85c0.74 0 1.48-.74 1.48-1.49z"/>
</symbol>
<symbol id="icon-arrow-5-o" viewBox="-2 -2 36 36">
<desc>arrow-5-o</desc>
<path d="m1.51 23.19c-.25-.05 .39-4.72 .57-5.81-.55-1.35-1.89-3.84-2.08-4.86 0 0 .25-.3 1.22-.67 6.1-2.33 12.95-1.77 20.07 .29 .34-.34 .11-2.73 .25-4.49l10.45 9.41c-3.03 2.12-8.74 5.88-11.66 7.29 0 0 .6-3.59 .59-4.18-9.6-1.65-15.29 1.3-19.4 3.02zm1.445-2.06c6-3.21 12.62-3.33 19.26-2.28 .01 .76-.02 2.34-.2 3.11 2.79-1.53 5.33-3.38 7.9-5.04l-7.2-6.34c0 .96-.06 2.23-.08 3.32-7.51-2.01-14.15-3.51-20.875-.63l1.81 3.74z"/>
</symbol>
<symbol id="icon-plus" viewBox="-2 -2 36 36">
<desc>plus</desc>
<path d="m16 0c-1.66 0-3 1.343-3 3v10h-10c-1.657 0-3 1.343-3 3s1.344 3 3 3h10v10c0 1.657 1.343 3 3 3s3-1.343 3-3v-10h10c1.656 0 3-1.343 3-3 0-1.66-1.343-3-3-3h-10.002v-10c0-1.656-1.342-3-3-3z"/>
</symbol>
<symbol id="icon-minus" viewBox="-2 -2 36 36">
<desc>minus</desc>
<path d="m29 19c1.656 0 3-1.343 3-3 0-1.66-1.343-3-3-3h-26c-1.657 0-3 1.343-3 3s1.344 3 3 3z"/>
</symbol>
<symbol id="icon-times" viewBox="-2 -2 36 36">
<desc>times</desc>
<path d="m0.9 0.9a3 3 0 0 0 0 4.24l10.9 10.9-10.9 10.9a3 3 0 0 0 0 4.24 3 3 0 0 0 4.24 0l10.9-10.9 10.9 10.9a3 3 0 0 0 4.24 0 3 3 0 0 0 0-4.24l-10.9-10.9 10.9-10.9a3 3 0 0 0 0-4.24 3 3 0 0 0-4.24 0l-10.9 10.9-10.9-10.9a3 3 0 0 0-4.24 0z"/>
</symbol>
<symbol id="icon-times-o" viewBox="-2 -2 36 36">
<desc>times-o</desc>
<path d="m27.31 4.69c-6.24-6.24-16.39-6.24-22.63 0-6.24 6.24-6.24 16.387 0 22.63 6.24 6.24 16.39 6.24 22.63 0s6.24-16.39 0-22.63zm-4.03 4.03c0.95 .95 .95 2.5 0 3.45l-3.84 3.84 3.84 3.84c.95 .95 .95 2.5 0 3.45-.95 .95-2.5 .95-3.45-0l-3.84-3.84-3.84 3.84c-.95 .95-2.5 .95-3.45 0-.95-.95-.95-2.5 0-3.45l3.84-3.84-3.84-3.84c-.95-.95-.95-2.5-0-3.45 .95-.95 2.5-.95 3.45 0l3.84 3.84 3.84-3.84c.95-.95 2.5-.95 3.45 0z"/>
</symbol>
<symbol id="icon-check" viewBox="-2 -2 36 36">
<desc>check</desc>
<path d="m31.12 5.38a3 3 0 0 0-4.24 0l-14.88 14.88-6.88-6.88a3 3 0 0 0-4.24 0 3 3 0 0 0 0 4.24l9 9a3 3 0 0 0 4.242 0l17-17.001a3 3 0 0 0 0-4.24z"/>
</symbol>
<symbol id="icon-check-o" viewBox="-2 -2 36 36">
<desc>check-o</desc>
<path d="m31.26 7.26a2.533 2.544 0 0 0-3.586 0l-12.564 12.616-5.81-5.83a2.5334 2.544 0 0 0-3.58 0 2.5334 2.544 0 0 0 0 3.6l7.6 7.635a2.534 2.544 0 0 0 3.58 0l14.36-14.42a2.5334 2.544 0 0 0 0-3.6zm-28.28-7.26c-1.63 0-2.98 1.324-2.98 2.95v26.1c0 1.625 1.35 2.95 2.98 2.95h26.04c1.63 0 2.98-1.326 2.98-2.95v-16.04l-2 2v14.03c0 .54-0.41 .95-0.98 .95h-26.04c-0.57 0-.98-.414-.98-.95v-26.1c0-.54 .41-.95 .98-.95h26.04c.57 0 .98 .41 .98 .95v1.61c.7 .07 1.39 .31 2 .7v-2.31c0-1.625-1.35-2.95-2.98-2.95zm27.02 8.8v0.52c.1-.164 .1-.35 0-.52z"/>
</symbol>
<symbol id="icon-chevron-d" viewBox="-2 -2 36 36">
<desc>chevron-d</desc>
<path d="m18.05 24.6 13.1-13.1a2.9 2.9 0 0 0 0-4.1 2.9 2.9 0 0 0-4.1 0l-11.06 11.06-11.06-11.06a2.9 2.9 0 0 0-4.1 0 2.9 2.9 0 0 0 0 4.1l13.1 13.1a2.9 2.9 0 0 0 4.1 0z"/>
</symbol>
<symbol id="icon-chevron-u" viewBox="-2 -2 36 36">
<desc>chevron-u</desc>
<path d="m18.05 7.4 13.1 13.1a2.9 2.9 0 0 1 0 4.1 2.9 2.9 0 0 1-4.1 0l-11.06-11.06-11.06 11.06a2.9 2.9 0 0 1-4.1 0 2.9 2.9 0 0 1 0-4.1l13.1-13.1a2.9 2.9 0 0 1 4.1 0z"/>
</symbol>
<symbol id="icon-chevron-l" viewBox="-2 -2 36 36">
<desc>chevron-l</desc>
<path d="m20.467 0.91c2.716-2.716 6.75 1.256 4.085 4.085l-11.02 11.02 11.02 11.02c2.7 2.7-1.3676 6.8-4.09 4.0745l-13.06-13.044c-1.13-1.13-1.1275-2.96 4e-3 -4.09z"/>
</symbol>
<symbol id="icon-chevron-r" viewBox="-2 -2 36 36">
<desc>chevron-r</desc>
<path d="m11.533 0.9084c-2.716-2.716-6.746 1.256-4.085 4.085l11.02 11.02-11.02 11.02c-2.7 2.7 1.3676 6.8 4.09 4.0745l13.06-13.044c1.13-1.13 1.1275-2.96-0-4.09z"/>
</symbol>
<symbol id="icon-link" viewBox="-2 -2 36 36">
<desc>link</desc>
<path d="m5 0c-1.66 0-3 1.34-3 3s1.34 3 3 3h16.76l-20.88 20.88c-1.17 1.17-1.17 3.07 0 4.24 1.17 1.17 3.07 1.17 4.24 0l20.88-20.88v16.76c0 1.66 1.34 3 3 3s3-1.34 3-3v-24c0-1.76-1.41-3-3-3z"/>
</symbol>
<symbol id="icon-gotop-1" viewBox="-2 -2 36 36">
<desc>gotop-1</desc>
<path d="m14.61 .56-14 13.5c-.8 .77-.82 2.03-.05 2.83 .77 .8 2.03 .82 2.83 .05l12.61-12.16 12.61 12.16c0.8 .77 2.06 .75 2.83-.05s0.75-2.06-.05-2.83l-14-13.5c-.77-.75-2-.75-2.78 0zm-.66 13.39-13.1 13.1c-1.13 1.13-1.13 2.96 0 4.1 1.13 1.13 2.96 1.13 4.1 0l11.1-11.1 11.1 11.1c1.13 1.13 2.96 1.13 4.1 0 1.13-1.13 1.13-2.96 0-4.1l-13.1-13.1c-1.13-1.13-2.96-1.13-4.1 0z"/>
</symbol>
<symbol id="icon-gotop-2" viewBox="-2 -2 36 36">
<desc>gotop-2</desc>
<path d="m0 16 16-16 16 16v7.78l-16-16-16 16zm0 16v-4l16-16 16 16v4h-1l-15-15-15 15z"/>
</symbol>
<symbol id="icon-download" viewBox="-2 -2 36 36">
<desc>download</desc>
<path d="m6.916 18.89-4.55 5.31c-.22 .23-.37 .53-.37 .875v5.7c0 .68 .54 1.23 1.22 1.23h25.54c0.68 0 1.24-.55 1.23-1.23v-5.69c0-.35-.14-.655-.37-.88l-4.55-5.31-2.22 2.33 2.45 2.63h-18.63l2.45-2.63zm5.56 8.52h7.2c0.34 0 .68 .34 .68 .68 0 .34-.34 .68-.68 .68h-7.2c-.34 0-.69-.34-.68-.68 0-.34 .34-.68 .68-.68zm-5.17-14.74c-0 .475 .1 .95 .41 1.26l7.25 7.25c.27 .27 .63 .43 1.015 .42 .35 0 .66-.13 .89-.32 .06-.07 7.4-7.385 7.4-7.385 .625-.625 .51-1.82-.15-2.48-.63-.63-1.86-.76-2.48-.15l-3.81 3.815v-13.43c0-.89-.92-1.65-1.86-1.65-.89 0-1.85 .78-1.85 1.65v13.43l-3.76-3.82c-.66-.66-1.9-.51-2.56 .15-.31 .31-.49 .78-.52 1.25z"/>
</symbol>
<symbol id="icon-login" viewBox="-2 -2 36 36">
<desc>login</desc>
<path d="m16.865 1.5c-2.94 0-5.37 2.41-5.37 5.36v1.14a1.5 1.5 0 0 0 1.5 1.5 1.5 1.5 0 0 0 1.5-1.5v-1.14c0-1.33 1.03-2.36 2.37-2.36h9.77c1.34 0 2.37 1.03 2.37 2.36v18.29c0 1.33-1.03 2.36-2.37 2.36h-9.77c-1.34 0-2.37-1.03-2.37-2.36v-1.14a1.5 1.5 0 0 0-1.5-1.5 1.5 1.5 0 0 0-1.5 1.5v1.14c0 2.94 2.42 5.36 5.37 5.36h9.77c2.94 0 5.37-2.41 5.37-5.36v-18.29c0-2.94-2.42-5.36-5.37-5.36zm0.105 6.17v3.53h-16.36c-.34 0-.61 .28-.61 .62v8.38c0 .34 .27 .61 .61 .61h16.36v3.53c0 .87 .66 .8 1.13 .33l8.22-8.23c.26-.31 .22-.65-.02-.89l-8.2-8.21c-.49-.49-1.13-.565-1.13 .32z"/>
</symbol>
<symbol id="icon-logout" viewBox="-2 -2 36 36">
<desc>logout</desc>
<path d="m5.37 1.5c-2.94 0-5.37 2.41-5.37 5.36v18.29c0 2.94 2.42 5.36 5.37 5.36h9.77c2.94 0 5.36-2.41 5.36-5.36v-1.14a1.5 1.5 0 0 0-1.5-1.5 1.5 1.5 0 0 0-1.5 1.5v1.14c0 1.33-1.03 2.36-2.36 2.36h-9.77c-1.34 0-2.37-1.03-2.37-2.36v-18.29c0-1.33 1.03-2.36 2.37-2.36h9.77c1.34 0 2.36 1.03 2.36 2.36v1.15a1.5 1.5 0 0 0 1.5 1.5 1.5 1.5 0 0 0 1.5-1.5v-1.15c0-2.94-2.42-5.36-5.36-5.36zm17.11 6.16v3.53h-16.36c-.34 0-.61 .28-.61 .62v8.38c0 .34 .28 .61 .61 .61h16.36v3.53c0 .87 .66 .8 1.13 .33l8.22-8.23c.26-.31 .22-.65-.02-.89l-8.2-8.21c-.49-.49-1.13-.57-1.13 .32z"/>
</symbol>
<symbol id="icon-login-o" viewBox="-2 -2 36 36">
<desc>login-o</desc>
<path d="m12.45 .01c-.51 0-.91 .42-.91 .9v4.58c0 .5 .4 .91 .91 .9 .5 0 .91-.4 .91-.9v-3.67h16.84v28.37h-16.84v-3.67c0-.5-.4-.91-.91-.9-.51 0-.91 .4-.91 .9v4.58c0 .49 .4 .91 .91 .9h18.65c.49 0 .91-.4 .9-.91v-30.18c.01-.51-.42-.91-.9-.91zm3.88 4.6c-.5 0-.81 .44-.81 .9v4.13h-14.61c-.5 0-.9 .41-.9 .91v10.87c0 .5 .4 .9 .9 .9h14.61v4.12c0 .45 .32 .91 .76 .91 .4 0 .7-.21 .91-.42l10.31-10.3c.04-.04 .19-.19 .24-.46 .05-.27-.04-.59-.275-.85l-10.27-10.275c-.19-.21-.48-.43-.86-.43zm.685 2.36 9 9.01-9 9v-2.67c0-.83-.67-1.49-1.49-1.49h-14.02v-9.69h14.02c.83 0 1.495-.67 1.49-1.49z"/>
</symbol>
<symbol id="icon-logout-o" viewBox="-2 -2 36 36">
<desc>logout-o</desc>
<path d="m16.99 .01c0.5 0 .91 .42 .91 .9v4.53c0 .5-.4 .91-.91 .9-.5 0-.91-.39-.91-.9v-3.62h-14.26v28.37h14.26v-3.72c0-.5 .41-.91 .91-.9 .5 0 .91 .41 .91 .9v4.63c0 .49-.41 .91-.91 .9h-16.08c-.49 0-.92-.4-.91-.91v-30.18c0-.51 .42-.91 .91-.91zm3.7 4.55c-.5 0-.82 .44-.81 .9v4.13h-14.63c-.5 0-.91 .41-.91 .91v10.87c0 .5 .41 .91 .91 .91h14.63v4.12c0 .45 .32 .91 .76 .91 .4 0 .7-.21 .91-.42l10.21-10.3c0-.04 .18-.19 .24-.46 0-.27 0-.59-.28-.85l-10.17-10.28c-.19-.21-.48-.43-.86-.43zm.68 2.36 8.91 9.01-8.91 9v-2.67c0-.83-.67-1.49-1.49-1.49h-14.03v-9.69h14.03c.82 0 1.49-.67 1.49-1.49z"/>
</symbol>
<symbol id="icon-fullin-1" viewBox="-2 -2 36 36">
<desc>fullin-1</desc>
<path d="m3.22 23.81-2.35-2.345c-.3-.3-.87-.35-.87 .45v9.55c0 .33 .17 .535 .51 .535h9.61c.66 0 .76-.56 .47-.85l-2.34-2.34 8.45-8.42c.19-.2 .19-.52 0-.71l-4.31-4.29c-.21-.21-.53-.18-.72 0zm18.21-22.95 2.35 2.35-8.45 8.42c-.2 .2-.19 .52 0 .71l4.31 4.29c.2 .2 .52 .2 .71 0l8.45-8.42 2.34 2.34c.36 .36 .85 .21 .85-.47v-9.58c-1e-3 -.28-.22-.5-.54-.5h-9.59c-.59 0-.825 .48-.44 .86zm-16.01-.86c-2.96 0-5.43 2.3-5.43 5.19v11.42c0 .55 .45 1 1 1s1-.45 1-1v-11.42c0-1.75 1.48-3.19 3.43-3.19h10.95c.55 0 1-.45 1-1s-.45-1-1-1zm25.57 14.39c-.55 0-1 .45-1 1v11.42c0 1.75-1.48 3.19-3.43 3.19h-10.95c-.55 0-1 .45-1 1s.45 1 1 1h10.95c2.96 0 5.43-2.305 5.43-5.19v-11.42c0-.55-.45-1-1-1z"/>
</symbol>
<symbol id="icon-fullout-1" viewBox="-2 -2 36 36">
<desc>fullout-1</desc>
<path d="m19.68 7.27-2.35-2.345c-.3-.3-.87-.35-.87 .45v9.55c0 .33 .17 .535 .51 .535h9.61c.66 0 .76-.56 .47-.85l-2.34-2.34 7.15-7.12c.19-.2 .19-.52 0-.71l-4.31-4.29c-.21-.21-.53-.18-.72 0zm-14.73 10.11 2.35 2.35-7.15 7.12c-.2 .2-.19 .52 0 .71l4.31 4.29c.2 .2 .52 .2 .71 0l7.15-7.12 2.34 2.34c.36 .36 .85 .21 .85-.47v-9.58c0-.28-.22-.5-.54-.5h-9.59c-.59 0-.825 .48-.44 .86zm.485-17.38c-2.96 0-5.43 2.3-5.43 5.19v14.62c0 .55 .45 1 1 1 .55 0 1-.45 1-1v-14.62c0-1.75 1.48-3.19 3.43-3.19h14.15c.55 0 1-.45 1-1s-.45-1-1-1zm25.57 11.19c-.55 0-1 .45-1 1v14.62c0 1.75-1.48 3.19-3.425 3.19h-14.15c-.55 0-1 .45-1 1s.45 1 1 1h14.15c2.96 0 5.425-2.3 5.425-5.19v-14.62c0-.55-.45-1-1-1z"/>
</symbol>
<symbol id="icon-fullin-2" viewBox="-2 -2 36 36">
<desc>fullin-2</desc>
<path d="m5.43 0c-2.96 0-5.43 2.3-5.43 5.19v9.92c0 .55 .45 1 1 1s1-.45 1-1v-9.92c0-1.75 1.48-3.19 3.43-3.19h9.45c.55 0 1-.45 1-1s-.45-1-1-1zm25.57 15.89c-.55 0-1 .45-1 1v9.92c0 1.75-1.48 3.19-3.43 3.19h-9.45c-.55 0-1 .45-1 1s.45 1 1 1h9.45c2.96 0 5.43-2.3 5.43-5.19v-9.92c0-.55-.45-1-1-1zm.41-3.38c.35-.31 .59-.72 .59-1.15v-9.98c0-.37-.14-.73-.41-.99-.24-.24-.54-.36-.84-.394-.1 0-10.17-.01-10.17-.01-.86 0-1.61 .9-1.61 1.81 0 .87 .76 1.80 1.61 1.8h5.24c-.75 .74-9.24 9.23-9.24 9.23-.61 .61-.5 1.77 .14 2.41 .61 .61 1.81 .74 2.41 .14l9.24-9.24v5.22c0 .91 .96 1.65 1.87 1.65 .42 0 .87-.2 1.21-.51zm-30.82 6.98c-.35 .31-.59 .72-.59 1.15v9.98c0 .36 .14 .73 .41 .98 .24 .245 .54 .36 .83 .39h10.19c.86 0 1.6-.9 1.6-1.8 0-.86-.76-1.8-1.6-1.8h-5.25c.75-.74 9.25-9.23 9.25-9.23 .61-.61 .5-1.77-.14-2.41-.61-.61-1.81-.74-2.41-.14l-9.23 9.24v-5.22c0-.91-.96-1.65-1.87-1.65-.42 0-.87 .2-1.21 .51z"/>
</symbol>
<symbol id="icon-fullout-2" viewBox="-2 -2 36 36">
<desc>fullout-2</desc>
<path d="m5.43 0c-2.96 0-5.43 2.3-5.43 5.19v18.42c0 .55 .45 1 1 1 .55 0 1-.45 1-1v-18.42c0-1.754 1.48-3.19 3.43-3.19h17.944c.55 0 1-.45 1-1s-.45-1-1-1zm25.57 7.39c-.55 0-1 .45-1 1v18.42c0 1.754-1.48 3.19-3.43 3.19h-17.944c-.55 0-1 .45-1 1s.45 1 1 1h17.944c2.96 0 5.43-2.304 5.43-5.19v-18.42c0-.55-.45-1-1-1zm-14.144-3.44c-.34 .305-.58 .715-.58 1.14v9.21c0 .365 .14 .724 .41 .98 .23 .24 .54 .36 .83 .39 .1 0 9.41 0 9.41 0 .85 0 1.59-.89 1.59-1.79 0-.86-.75-1.79-1.59-1.79h-4.52c.75-.734 9.19-9.174 9.19-9.174 .61-.604 .5-1.76-.14-2.395-.61-.61-1.8-.734-2.39-.14l-9.19 9.18v-4.484c0-.9-.95-1.644-1.85-1.644-.41 0-.86 .2-1.21 .505zm-1.714 24.11c.34-.3 .58-.715 .58-1.131v-9.22c0-.363-.14-.72-.41-.98-.23-.24-.54-.357-.83-.39-.1 0-9.41-0-9.41-0-.85 0-1.59 .89-1.59 1.79 0 .86 .75 1.79 1.59 1.79h4.52c-.74 .735-9.19 9.18-9.19 9.18-.61 .6-.5 1.75 .14 2.39 .61 .61 1.8 .736 2.39 .14l9.19-9.18v4.49c0 .9 .95 1.64 1.85 1.64 .41 0 .86-.2 1.21-.51z"/>
</symbol>
<symbol id="icon-share" viewBox="-2 -2 36 36">
<desc>share</desc>
<path d="m0 16a5.26 5.26 0 0 0 5.26 5.26 5.26 5.26 0 0 0 3.87-1.7c4.16 2.035 8.31 4.07 12.46 6.11a5.26 5.26 0 0 0-.11 1.07 5.26 5.26 0 0 0 5.26 5.26 5.26 5.26 0 0 0 5.26-5.26 5.26 5.26 0 0 0-5.26-5.26 5.26 5.26 0 0 0-3.91 1.75c-4.14-2.03-8.28-4.06-12.43-6.09a5.26 5.26 0 0 0 .13-1.13 5.26 5.26 0 0 0-0.11-1.05c4.16-2.04 8.32-4.08 12.47-6.11a5.26 5.26 0 0 0 3.85 1.68 5.26 5.26 0 0 0 5.26-5.26 5.26 5.26 0 0 0-5.26-5.26 5.26 5.26 0 0 0-5.26 5.26 5.26 5.26 0 0 0 .13 1.15c-4.14 2.03-8.28 4.06-12.424 6.09a5.26 5.26 0 0 0-3.92-1.76 5.26 5.26 0 0 0-5.26 5.26z"/>
</symbol>
<symbol id="icon-share-o" viewBox="-2 -2 36 36">
<desc>share-o</desc>
<path d="m26.67 0c-2.94 0-5.33 2.39-5.33 5.33 0 .41 0 .81 .14 1.19-4.03 1.97-8.14 3.95-12.18 5.93-.97-1.09-2.39-1.78-3.97-1.78-2.94 0-5.33 2.39-5.33 5.33s2.39 5.33 5.33 5.33c1.55 0 2.94-.66 3.91-1.71 4.05 1.98 8.17 3.96 12.21 5.95-.1 .355-.11 .72-.11 1.1 0 2.94 2.38 5.33 5.33 5.33s5.33-2.39 5.33-5.33-2.38-5.33-5.33-5.33c-1.58 0-3 .69-3.98 1.79-4.02-1.97-8.13-3.95-12.16-5.93 .1-.38 .13-.78 .13-1.19 0-.38 0-.75-.11-1.11 4.05-1.98 8.17-3.96 12.21-5.95 .97 1.055 2.36 1.72 3.91 1.72 2.95 0 5.33-2.39 5.33-5.33s-2.38-5.33-5.33-5.33zm0 2.33c1.66 0 3 1.34 3 3 0 1.66-1.34 3-3 3s-3-1.34-3-3c0-1.66 1.34-3 3-3zm-21.34 10.67c1.66 0 3 1.34 3 3s-1.34 3-3 3c-1.65 0-3-1.34-3-3s1.35-3 3-3zm21.34 10.66c1.66 0 3 1.34 3 3 0 1.66-1.34 3-3 3s-3-1.34-3-3c0-1.66 1.34-3 3-3z"/>
</symbol>
<symbol id="icon-smiley" viewBox="-2 -2 36 36">
<desc>smiley</desc>
<path d="m16 0c-8.84 0-16 7.16-16 16 0 8.84 7.16 16 16 16 8.84 0 16-7.16 16-16 0-8.84-7.16-16-16-16zm-5.94 8.09c1.38 0 2.5 1.12 2.5 2.5 0 1.38-1.12 2.5-2.5 2.5s-2.5-1.12-2.5-2.5c0-1.38 1.12-2.5 2.5-2.5zm11.88 0c1.38 0 2.5 1.12 2.5 2.5 0 1.38-1.12 2.5-2.5 2.5s-2.5-1.12-2.5-2.5c0-1.38 1.12-2.5 2.5-2.5zm-14.34 10.74c0.64 0 5.09 .67 8.4 .67s7.75-.67 8.4-.67c.12 0 .24 0 .355 0 .365 .1 .67 .33 .87 .65 .19 .325 .24 .71 .15 1.07-1.15 4.46-5.17 7.57-9.77 7.57-4.6 0-8.62-3.115-9.77-7.58-.2-.75 .26-1.53 1.015-1.72 .116-0 .235-0 .35-0z"/>
</symbol>
<symbol id="icon-user-1" viewBox="-2 -2 36 36">
<desc>user-1</desc>
<path d="m16 0c-8.84 0-16 7.16-16 16 0 8.84 7.16 16 16 16 8.84 0 16-7.16 16-16 0-8.84-7.16-16-16-16zm0 3.35c4.56 0 8.25 3.694 8.25 8.25 0 4.56-3.694 8.25-8.25 8.25-4.56 0-8.25-3.694-8.25-8.25 0-4.556 3.69-8.25 8.25-8.25zm-5.46 11.17c1.04 1.95 3.1 3.27 5.46 3.27 2.36 0 4.414-1.324 5.46-3.27zm10.96 6.32c1.59 .95 3.53 2.51 4.65 4.1-2.5 2.634-6.224 4.38-10.14 4.38-3.91 0-7.54-1.75-10.03-4.38 1.11-1.584 2.95-3.15 4.534-4.09 1.666 .99 3.41 1.56 5.49 1.56 2.08 0 3.83-.57 5.5-1.565z"/>
</symbol>
<symbol id="icon-user-2" viewBox="-2 -2 36 36">
<desc>user-2</desc>
<path d="m15.99 0c-5.814 0-10.53 4.714-10.53 10.53 0 5.816 4.71 10.53 10.53 10.53 5.815 0 10.53-4.71 10.53-10.53 0-5.815-4.714-10.53-10.53-10.53zm-6.965 14.25h13.93c-1.33 2.485-3.95 4.176-6.967 4.176s-5.635-1.69-6.965-4.176zm14.236 8.494c-2.13 1.27-4.6145 2-7.272 2-2.65 0-5.134-0.725-7.26-1.99-3.34 1.99-6.9 5.32-7.73 9.246h30c-0.836-3.93-4.394-7.26-7.74-9.254z"/>
</symbol>
<symbol id="icon-users" viewBox="-2 -2 36 36">
<desc>users</desc>
<path d="m8.66 17.376c4.9 0 7.63 5.164 8.625 9.565h-17.286c1.09-4.32 3.764-9.565 8.66-9.565zm13.67-12.434c2.926 0 5.3 2.37 5.3 5.2945 0 2.926-2.37 5.3-5.3 5.3-2.93 0-5.3-2.37-5.3-5.3 0-2.925 2.37-5.295 5.3-5.295zm0 12.33c5.675 0 9.67 3.995 9.67 9.67h-12.93c-0.57-2.71-1.555-5.232-3.266-7.352 1.67-1.464 3.92-2.316 6.525-2.316zm-13.755-11.26c-2.67 0-4.83 2.163-4.83 4.83 0 2.67 2.16 4.83 4.83 4.83 2.67 0 4.83-2.165 4.83-4.83 0-2.67-2.165-4.83-4.83-4.83z"/>
</symbol>
<symbol id="icon-group" viewBox="-2 -2 36 36">
<desc>group</desc>
<path d="m6.1 8c-2.09 0-3.78 1.69-3.78 3.78s1.69 3.78 3.78 3.78c2.09 0 3.775-1.69 3.78-3.78s-1.69-3.78-3.78-3.78zm19.8 0c-2.09 0-3.78 1.69-3.78 3.78s1.69 3.78 3.78 3.78c2.09 0 3.78-1.69 3.78-3.78s-1.69-3.78-3.78-3.78zm-9.91 0.98c-2.51 0-4.55 2.03-4.55 4.55s2.04 4.55 4.55 4.55 4.55-2.04 4.55-4.55-2.036-4.55-4.55-4.55zm-6.95 7.26c-0.86 0.515-1.88 0.82-2.96 0.82-1.08 0-2.08-0.3-2.95-0.81-1.36 0.81-2.8 2.16-3.14 3.76h11.15c-1.04 0.89-2.42 2.73-2.68 4h15.07c-0.27-1.27-1.65-3.11-2.69-4h11.15c-0.34-1.6-1.79-2.95-3.15-3.76-0.864 0.52-1.88 0.82-2.96 0.82-1.08 0-2.09-0.3-2.95-0.81-1.17 0.7-2.4 1.8-2.94 3.11-0.2-0.14-0.41-0.27-0.61-0.39-1 0.6-2.16 0.94-3.41 0.94-1.24 0-2.41-0.34-3.4-0.93-0.2 0.12-0.4 0.25-0.61 0.39-0.54-1.31-1.77-2.42-2.94-3.12z"/>
</symbol>
<symbol id="icon-disabled" viewBox="-2 -2 36 36">
<desc>disabled</desc>
<path d="m8.79 9.605 .61 6.96c0.19 1.81 1.55 2.77 2.52 2.79h9.29l3.1 8.47c0.24 .49 .79 .77 1.36 .67l3.29-.55c0.69-.115 1.15-.78 1.03-1.47-.12-.695-.78-1.15-1.47-1.03l-2.24 .37-3.2-8.78c-.2-.55-.73-.86-1.3-.86h-6.61l-.12-1.33h4.02c0.71 0 1.28-.57 1.28-1.27 0-.71-.57-1.27-1.28-1.27h-4.24l-.28-3.19c-.14-1.56-1.35-2.82-3.03-2.76-1.68 .06-2.86 1.6-2.72 3.26zm-1.83 3.48c-2.97 1.78-4.96 5.03-4.96 8.73 0 5.61 4.57 10.18 10.18 10.18 4.02 0 7.49-2.35 9.15-5.73l-1.53-4.15v0.2c-.25 4-3.55 7.14-7.62 7.14-4.23 0-7.64-3.41-7.64-7.64 0-2.33 1.03-4.41 2.67-5.81zm1.23-9.97c0.14 1.58 1.52 2.74 3.1 2.6 1.58-.14 2.74-1.52 2.61-3.1-.13-1.48-1.33-2.68-3-2.61-1.66 .06-2.85 1.53-2.71 3.11z"/>
</symbol>
<symbol id="icon-donate" viewBox="-2 -2 36 36">
<desc>donate</desc>
<path d="m4.935 20.146c-1.81 1.1-3.186 2.47-4.63 4-.9 .97 .37 2.44 1.485 1.326 1.43-1.49 2.94-2.99 4.81-3.91 1.08-.32 2.23-.19 3.33-.09 .855 .11 1.7 .31 2.565 .25h5.955c0.52 0 1.165 .25 1.165 .98 0 .73-.63 1-1.39 1h-5.15c-1.21 0-1.57 2 0 2h5.8c1.43 0 2.77-1.11 2.77-3.04 0-1.9-1.47-2.95-3.225-2.95-2.27 0-4.54 .02-6.81-.01-.62-.12-1.25-.21-2.37-.335-1.123-.13-2.98-.08-4.32 .78zm23.35-2.17-5.71 2.72c-.5 .24-.71 .835-.47 1.33 .24 .5 .835 .71 1.33 .47l5.48-2.61c0.32-.18 .75 0 .95 .34 .2 .345 .01 .79-.27 .955l-11.49 6.62-6.04 .34h-4.55c-.48 0-2.515 1.3-3.72 1.99-.48 .28-.64 .89-.365 1.365 .28 .48 .89 .64 1.365 .365l2.98-1.72h4.34l6.33-.35c.85-.09 1.97-1 12.23-6.92 1.41-.82 1.58-2.21 1-3.46-.58-1.25-1.94-2.12-3.4-1.43zm-20.81-11.14 2.31 .98c0.61 .26 1.28 .04 1.54-.58 .26-.61-.05-1.25-.65-1.51l-2.31-.98c-.61-.26-1.28-.04-1.54 .57-.26 .61 .05 1.25 .65 1.51zm15.8 6.74-2.31-.98c-.61-.26-.91-.9-.65-1.51 .26-.605 .93-.83 1.54-.58l2.31 .98c.61 .26 .91 .89 .65 1.5-.26 .61-.93 .84-1.54 .58zm-11.155-13.49c-.61 .25-.85 .915-.6 1.53l.94 2.32c.25 .61 .88 .93 1.49 .68 .61-.25 .85-.92 .6-1.525l-.94-2.32c-.25-.61-.88-.93-1.49-.68zm7.3355 18.105c-.61 .25-1.24-.06-1.49-.68l-.94-2.32c-.25-.61-.02-1.28 .6-1.53 .61-.25 1.24 .06 1.49 .68l.94 2.32c.25 .61 0 1.28-.6 1.53zm-1.28-17.39-.98 2.305c-.26 .61-.04 1.28 .58 1.54 .605 .255 1.245-.05 1.505-.65l0.98-2.31c0.26-.6 .04-1.28-.57-1.54-.61-.26-1.25 .05-1.51 .65zm-6.69 15.8 .98-2.3c.26-.61 .9-.91 1.51-.65 .6 .26 .83 .93 .58 1.53l-.98 2.305c-.26 .61-.9 .91-1.51 .66-.61-.26-.83-.93-.575-1.54zm13.42-11.11c-.25-.61-.91-.85-1.53-.6l-2.32 .94c-.61 .25-.93 .88-.68 1.49 .25 .61 .92 .845 1.53 .6l2.32-.94c.61-.25 .93-.88 .68-1.49zm-18.12 7.32c-.25-.61 .06-1.25 .68-1.49l2.32-.94c.61-.25 1.28-.02 1.53 .6 .25 .61-.06 1.25-.68 1.49l-2.32 .94c-.61 .25-1.28 .02-1.525-.6z"/>
</symbol>
<symbol id="icon-user-o" viewBox="-2 -2 36 36">
<desc>user-o</desc>
<path d="m13 15.54c-2.2 0-4 1.803-4 4v4.66a1 1 0 0 0 1 1h12a1 1 0 0 0 1-1v-4.66c0-2.2-1.8-4-4-4zm0 2h6c1.12 0 2 .88 2 2v3.66h-10v-3.66c0-1.12 .88-2 2-2zm3-10.8c-2.2 0-4 1.8-4 4 0 2.2 1.8 4 4 4s4-1.8 4-4c0-2.2-1.8-4-4-4zm0 2c1.12 0 2 .88 2 2 0 1.12-.88 2-2 2-1.11 0-2-.88-2-2 0-1.12 0.89-2 2-2zm0-8.74c-8.825 0-16 7.175-16 16s7.175 16 16 16c8.82 0 16-7.175 16-16s-7.18-16-16-16zm0 2c7.74 0 14 6.26 14 14s-6.26 14-14 14-14-6.26-14-14 6.26-14 14-14z"/>
</symbol>
<symbol id="icon-eye" viewBox="-2 -2 36 36">
<desc>eye</desc>
<path d="m16 5.35c-4.95 0-9.11 2.29-12.47 5.65-1.37 1.39-2.57 3.07-3.53 5 .96 1.95 2.16 3.64 3.53 5 3.36 3.34 7.53 5.63 12.47 5.63 4.96 0 9.13-2.29 12.47-5.63 1.37-1.36 2.58-3.05 3.53-5-.95-1.95-2.16-3.64-3.53-5-3.34-3.36-7.51-5.65-12.47-5.65zm-4.05 2.72 .92 1.59c1.02-.59 2.09-.86 3.13-.83 3.5 0 6.35 2.84 6.35 6.33s-2.85 6.34-6.35 6.34c-3.51 0-6.35-2.84-6.35-6.34 0-1.07 .28-2.13 .79-3.06l-1.61-.93c-.68 1.22-1.04 2.6-1.04 3.99 0 4.53 3.67 8.2 8.21 8.2 4.53 0 8.21-3.67 8.21-8.2 0-2.94-1.57-5.65-4.12-7.11 2.27 .78 4.28 2.16 6.01 3.9 1.11 1.12 2.19 2.49 2.96 4.07-.77 1.58-1.85 2.95-2.96 4.05-2.71 2.7-6.08 4.56-10.1 4.56-4.01 0-7.38-1.86-10.1-4.56-1.11-1.1-2.19-2.47-2.96-4.05 .77-1.58 1.85-2.94 2.96-4.07 1.62-1.62 3.48-2.92 5.56-3.72 .21-.08 .47-.155 .49-.16zm1.85 3.21 2.4 4.15-4.14-2.38c-.355 .6541-.54 1.39-.54 2.13 0 2.47 2.01 4.47 4.48 4.47s4.48-2 4.48-4.47-2.01-4.47-4.48-4.47c-.82-.01-1.64 .24-2.2 .57z"/>
</symbol>
<symbol id="icon-eye_" viewBox="-2 -2 36 36">
<desc>eye_</desc>
<path d="m23.71 1.67c-0.34 0-0.65 0.221-0.85 0.64l-12.23 26.45c-0.6 1.325 1.39 2.24 2.01 0.93l1.29-2.77c0.67 0.08 1.36 0.14 2.07 0.14 4.96 0 9.12-2.3 12.47-5.63 1.37-1.37 2.59-3.055 3.53-5.01-0.95-1.95-2.16-3.64-3.53-5.03-1.63-1.63-3.43-3-5.43-3.99l1.83-4.1636c0.41-0.9-0.39-1.55-1.14-1.57zm-7.72 4.05c-4.94 0-9.1 2.3-12.46 5.66-1.37 1.39-2.58 3.08-3.53 5.03 0.95 1.95 2.16 3.64 3.53 5 1.83 1.81 3.89 3.32 6.18 4.31l0.89-1.91c-1.73-0.81-3.3-1.97-4.7-3.36-1.11-1.11-2.23-2.48-3-4.06 0.77-1.58 1.89-2.95 3-4.07 1.62-1.62 3.48-2.93 5.56-3.73 0.21-0.08 0.46-0.16 0.48-0.164l0.92 1.59c1.53-0.83 2.84-0.96 4.49-0.68l1.57-3.36c-1.1-0.19-2.07-0.28-2.93-0.26zm6.13 3.62c1.45 0.78 2.77 1.8 3.97 3 1.12 1.12 2.2 2.49 2.97 4.07-0.77 1.58-1.85 2.95-2.97 4.06-2.71 2.7-6.08 4.56-10.1 4.56-0.39 0-0.78-0.03-1.16-0.05l0.58-1.23c0.2 0.01 0.39 0.03 0.59 0.03 4.54 0 8.21-3.68 8.21-8.21 0-2.16-0.85-4.2-2.32-5.71zm-8.32 2.31 1.37 2.38 1.36-2.92c-0.96-0.15-2.08 0.13-2.73 0.54zm-4.97-0.1c-0.69 1.22-1.04 2.6-1.04 4 0 2.8 1.4 5.26 3.53 6.74l0.8-1.73c-1.5-1.16-2.47-2.97-2.47-5.02 0-1.07 0.27-2.13 0.79-3.07zm12.2 0.15c0.82 1.07 1.32 2.4 1.32 3.855 0 3.41-2.7 6.19-6.07 6.33l0.94-2.015c1.93-0.55 3.26-2.31 3.26-4.32 0-0.63-0.14-1.26-0.39-1.84zm-8.97 1.72c-0.36 0.65-0.53 1.39-0.53 2.13 0 1.24 0.51 2.43 1.41 3.27l1.79-3.86z"/>
</symbol>
<symbol id="icon-fingerprint" viewBox="-2 -2 36 36">
<desc>fingerprint</desc>
<path d="m11 31.7c-1.1-2.1 1.4-2.1 2.75-3.66 1.9-2.04 3-4.6 3.8-7.25 0.2-1.3 2.16-2.46 2.13-0.4 0.125 3.3-1.6 6.4-3.34 8.2-1.7 1.85-4.4 4.3-5.3 3.1zm6.9 0.1c-1.26-1.6 1.1-1.96 2.05-3.5 1-1.55 0.86-3.06 2.4-3.46 1.9 0.6 0.4 3.35-0.4 4.4-0.95 1.13-2.3 3.3-4 2.5zm-13.13-2.2c-0.8-1.6 1.7-2.1 2.7-2.8 2.75-1.5 5.1-4.14 6.2-7.14 0.2-1.2 2.2-3.4 2.6-1.4 0.1 2.2-1.1 4.2-2.3 5.9-1.9 2.4-4.3 4.6-7.2 5.65-0.6 0.2-1.5 0.36-2-0.2zm20.4-3.4c-0.15-2.76 0.8-5.5 0.5-8.26-0.2-3.8-1.85-7.95-5.2-10-1.6-0.9-3.36-1.05-5.1-1.74-1.6-0.7 0.13-1.9 2.26-1.7 3.8 0.6 7 3.13 8.54 6.7 1.95 4.4 2.2 9.4 1.3 14.06-0 1.1-1.6 2.1-2.3 1zm-20.9-3.16c2.1-0.65 3.65-2.2 5.26-3.6 1.05-1.4 2.85 0 1.8 1.4-1.5 2.2-3.96 3.6-6.4 4.6-1.1 0.34-2.7 1.3-3.7-0.05-1-1.3 1.84-1.9 3-2.32zm16-9.7c-0.94-0.8-2.2-3.6-0.05-3.46 1.8 0.86 2.54 3 3.15 4.8 0.64 2.45 0.74 5.4 0.35 7.6-0.2 0.8-2 1.54-2-0.4 0-1.95 0.4-6.1-1.44-8.56zm-19.6 7.31c-1-1.8 1.8-1.8 2.9-2.3 2.04-0.9 3.4-2.8 4.44-4.76 0.86-1.9 2.8-0.56 2 1.14-0.9 2.7-3.1 4.5-5.5 5.8-1.15 0.5-2.8 1.26-3.8 0.16zm10.26-3.5c-0.8-1.55 0.9-3 2.1-3.8 1.45-1 3.5-1.04 4.84 0.1 1.1 0.8 2.8 2.65 1.5 3.95-1.8 1-2.06-1.46-3.2-2.15-1.8-1.05-2.6 1.34-3.7 2.2-0.5 0.36-1.2 0.1-1.55-0.4zm-9.35-0.4c-1.05-1.9 1.6-2.6 2.6-3.6 1-0.6 1.6 1.8-0.35 3-0.7 0.3-1.6 1.14-2.3 0.6zm28.1-0.2c-0.8-2.7-1.3-5.36-2.85-7.74-0.8-1.6-2.9-2.6-3.1-4.46 0.4-1.8 2.6-0.2 3.25 0.7 2.13 2.7 3.7 5.95 4.4 9.34 0.46 2.35-1.2 3.7-1.7 2.1zm-22.2-8.7c1.5-1.34 3.15-2.8 5.2-3.15 1.95 0.3 0.56 2.4-0.85 2.7-1.9 0.84-3.1 2.64-4.6 4.05-0.6 0.55-1.64 1.16-1.8-0.16-0.2-1.3 1.14-2.4 2.05-3.4zm6.85 0.6c1.2-0.5 3.8 0.13 3 1.4-1.2 1-2.9 0.45-4.2 1.4-0.7 0.55-2.1 1.24-2.3-0.2-0.2-1.5 2.2-2.13 3.57-2.6zm-11.1-1.67c1.18-1.6 2.5-3.2 4.44-3.86 2.26-0.2 0.5 2.6-0.7 3.1-1.5 1.26-2.2 3.1-3.5 4.6-0.3 0.35-0.8 0.9-1.54 0.2-0.7-0.7 0.66-2.95 1.3-4zm14.66-4.2c-3.8-1.16-6.35 0.95-7.4 0.1-1.25-0.6 0.5-1.9 2.06-2.3 3.29-0.7 6.25-0.3 8.9 1 1.5 1 0.94 2.9-0.8 2.1-0.5-0.1-1.85-0.6-2.8-0.9z"/>
</symbol>
<symbol id="icon-world" viewBox="-2 -2 36 36">
<desc>world</desc>
<path d="m15.98 0c-8.82 0-15.98 7.18-15.98 16 0 8.825 7.17 16 16 16 8.82 0 16-7.175 16-16s-7.18-16-16-16v0zm-.98 2.22v5.75c-1.26-.06-2.5-.23-3.71-.51 .7297-1.935 1.87-4.39 3.71-5.24zm2 0c2.11 1.485 2.9 3.11 3.69 5.24-1.21 .27-2.45 .44-3.69 .51zm3.56 .54c1.88 .64 3.57 1.67 4.99 3-.95 .46-1.93 .86-2.93 1.18-.47-1.53-1.14-2.96-2.06-4.175zm-9.15 0c-.96 1.33-1.58 2.75-2.06 4.17-.99-.32-1.96-.71-2.91-1.17 1.42-1.32 3.1-2.35 4.97-2.995zm-6.38 4.52c1.22 .63 2.48 1.16 3.77 1.57-.45 1.87-.73 3.95-.79 6.14h-5.97c.2-2.91 1.29-5.57 2.99-7.71zm21.93 0c1.7 2.145 2.79 4.8 3 7.71h-5.99c-.1-2.195-.34-4.27-.79-6.14 1.3-.415 2.56-.94 3.78-1.57zm-16.22 2.1c1.39 .32 2.82 .52 4.26 .58v5.03h-4.99c.1-2.02 .32-3.92 .73-5.61zm10.5 0c.4 1.69 .67 3.59 .73 5.61h-4.97v-5.03c1.43-.07 2.85-.26 4.24-.58zm-19.2 7.61h5.97c.1 2.2 .34 4.27 .79 6.14-1.29 .415-2.55 .94-3.77 1.57-1.7-2.15-2.79-4.805-2.99-7.71zm7.97 0h4.99v5.03c-1.44 .07-2.87 .26-4.26 .58-.41-1.69-.67-3.59-.73-5.61zm6.99 0h4.97c-.1 2.01-.32 3.9-.72 5.58-1.4-.31-2.82-.5-4.25-.56zm6.97 0h5.99c-.21 2.89-1.28 5.53-2.97 7.67-1.22-.63-2.5-1.15-3.8-1.56 .45-1.86 .72-3.925 .78-6.11zm-6.97 7.025c1.24 .06 2.48 .22 3.7 .49-.74 1.94-1.86 4.4-3.7 5.26zm-2 0v5.74c-2.13-1.48-2.91-3.11-3.71-5.24 1.22-.27 2.46-.44 3.71-.51zm7.63 1c1.01 .32 2 .71 2.95 1.17-1.42 1.34-3.13 2.38-5.02 3.03 .97-1.34 1.61-2.78 2.07-4.21zm-13.27 .04c0.47 1.53 1.17 2.945 2.06 4.16-1.87-.64-3.56-1.67-4.97-2.99 .94-.46 1.91-.85 2.91-1.17z"/>
</symbol>
<symbol id="icon-envelope" viewBox="-2 -2 36 36">
<desc>envelope</desc>
<path d="m1.79 5.28c-.98 0-1.79 .79-1.79 1.79v17.88c0 .98 .8 1.78 1.78 1.775h28.44c0.99 0 1.78-.79 1.78-1.78v-17.89c0-.99-.79-1.79-1.78-1.79zm1.26 1.78h25.91l-12.95 12.95zm27.12 1.31v15.45l-7.71-7.7zm-28.33 0 7.74 7.74-7.75 7.75zm9 9 4.53 4.53c0.1 .09 .19 .15 .3 .19 .1 .04 .22 .07 .33 .07 .12 0 .23-.02 .34-.07 .1-.04 .2-.11 .29-.19l4.53-4.53 7.58 7.58h-25.49z"/>
</symbol>
<symbol id="icon-home-o" viewBox="-2 -2 36 36">
<desc>home-o</desc>
<path d="m15.99 8.7c1.14 0 2.06 .93 2.06 2.06 0 1.13-.92 2.06-2.06 2.06-1.15 0-2.06-.93-2.06-2.06 0-1.14 .91-2.06 2.06-2.06zm-.77-8.35-14.7 14.69c-.98 .99-.46 2.03 .58 2.03h2.813v13.83c0 .61 .5 1.1 1.1 1.1h7.31v-8.44c0-1.95 1.65-3.53 3.7-3.53 2.03 0 3.7 1.57 3.7 3.53v8.44h7.31c0.6 0 1.09-.49 1.09-1.1v-13.83h2.77c1.43 0 1.29-1.33 .59-2.03l-14.69-14.74c-.47-.47-1.18-0.36-1.58 .04zm.77 2.17 12.45 12.45h-.34c-1.16 0-2.11 .94-2.11 2.11v12.82h-4.185v-6.33c0-3.16-2.69-5.64-5.82-5.64-3.13 0-5.81 2.5-5.81 5.64v6.33h-4.185v-12.82c0-1.16-.94-2.11-2.11-2.11h-.33z"/>
</symbol>
<symbol id="icon-home" viewBox="-2 -2 36 36">
<desc>home</desc>
<path d="m15.99 8.7c1.14 0 2.06 .93 2.06 2.06 0 1.13-.92 2.06-2.06 2.06-1.15 0-2.06-.93-2.06-2.06 0-1.14 .91-2.06 2.06-2.06zm-.77-8.35-14.7 14.69c-.98 .99-.46 2.03 .58 2.03h2.81v13.83c0 .61 .50 1.1 1.1 1.1h7.31v-8.44c0-1.95 1.65-3.53 3.7-3.53 2.03 0 3.7 1.57 3.7 3.53v8.44h7.31c0.6 0 1.09-.49 1.09-1.1v-13.83h2.89c1.28 0 1.17-1.33 .476-2.03l-14.69-14.74c-.47-.47-1.18-.36-1.58 .04z"/>
</symbol>
<symbol id="icon-padlock" viewBox="-2 -2 36 36">
<desc>padlock</desc>
<path d="m16 21.68c1.15 0 2.07 .93 2.07 2.07 0 1.14-.92 2.07-2.07 2.07-1.14 0-2.07-.93-2.07-2.07 0-1.14 .93-2.07 2.07-2.07zm-6.48-8.64v-3.11c0-3.58 2.9-6.48 6.48-6.48s6.48 2.9 6.48 6.48v3.11c0 .95 .78 1.72 1.72 1.72 .95 0 1.73-.77 1.73-1.72v-3.11c0-5.48-4.44-9.93-9.93-9.93-5.48 0-9.93 4.44-9.93 9.93v3.11c0 .95 .79 1.72 1.73 1.72 .96 0 1.73-.8 1.73-1.72zm-3.86 2.8c-.92 0-1.66 .73-1.66 1.65v12.58c0 .91 0.74 1.61 1.66 1.64 6.9 .45 13.78 .33 20.68 0 .92 0 1.66-.73 1.66-1.64v-12.59c0-.92-.73-1.66-1.66-1.65-7.2-.45-14.54-.38-20.68 0z"/>
</symbol>
<symbol id="icon-key" viewBox="-2 -2 36 36">
<desc>key</desc>
<path d="m9.746 0c-.26 0-.53 .01-.79 .03-2.145 .15-4.37 1.17-6.06 2.84-3.86 3.85-3.86 10.1 0 13.95 2.56 2.535 6.3 3.48 9.76 2.47l2.91 2.91h2.26v2.29l2.11 .04v2.1l1.59 1.58 2.26 .04v2.2l1.725 1.55h3.86l0.96-.9-14.12-14.1 1.37-1.39 14.19 14.14 .24-.22v-4.24l-12.68-12.65c1.01-3.45 .1-7.19-2.49-9.75-.67-.67-1.43-1.23-2.27-1.68-1.46-.79-3.08-1.21-4.9-1.198zm-3.38 4.11c0.51 0 .92 .09 1.27 .29 .2 .11 .38 .24 .54 .4 .92 .92 .92 2.42 0 3.35-.92 .93-2.43 .93-3.36 0-.92-.92-.92-2.42 0-3.35 .44-.44 1.03-.69 1.55-.69z"/>
</symbol>
<symbol id="icon-key" viewBox="-2 -2 36 36">
<desc>key</desc>
<path d="m9.746 0c-.26 0-.53 .01-.79 .03-2.145 .15-4.37 1.17-6.06 2.84-3.86 3.85-3.86 10.1 0 13.95 2.56 2.535 6.3 3.48 9.76 2.47l2.91 2.91h2.26v2.29l2.11 .04v2.1l1.59 1.58 2.26 .04v2.2l1.725 1.55h3.86l0.96-.9-14.12-14.1 1.37-1.39 14.19 14.14 .24-.22v-4.24l-12.68-12.65c1.01-3.45 .1-7.19-2.49-9.75-.67-.67-1.43-1.23-2.27-1.68-1.46-.79-3.08-1.21-4.9-1.198zm-3.38 4.11c0.51 0 .92 .09 1.27 .29 .2 .11 .38 .24 .54 .4 .92 .92 .92 2.42 0 3.35-.92 .93-2.43 .93-3.36 0-.92-.92-.92-2.42 0-3.35 .44-.44 1.03-.69 1.55-.69z"/>
</symbol>
<symbol id="icon-shield_o" viewBox="-2 -2 36 36">
<desc>shield_o</desc>
<path d="m16 0c-8.825 0-16 7.175-16 16s7.175 16 16 16c8.82 0 16-7.175 16-16s-7.18-16-16-16zm0 2c7.744 0 14 6.26 14 14s-6.26 14-14 14-14-6.26-14-14 6.26-14 14-14zm-8 4.84c.06 3.5-.09 7.12 .07 10.47 .1 2.01 .03 2.85 1.14 4.56 1.1 1.705 4.72 4.2 6.79 6.09 1.88-1.88 5.23-3.8 6.81-6.08 1.02-1.55 1.035-2.57 1.13-4.58 .1-4.22 .06-6.69 .06-10.45-3.71 2-5.8 1.13-7.99-.8-2.12 2.04-4.46 2.71-8 .8zm8 1.6c2.08 1.575 4.6 1.76 5.99 1.23-.03 6.88 .09 9.66-.73 10.91-.81 1.25-2.92 2.69-5.26 4.72-2.33-2.03-4.4-3.44-5.25-4.72s-.71-4.24-.74-10.91c1.34 .45 3.87 .45 5.99-1.23z"/>
</symbol>
<symbol id="icon-shield-o" viewBox="-2 -2 36 36">
<desc>shield-o</desc>
<path d="m16 0c-5.72 4.75-11.91 3.95-11.91 3.95-.82 11.38 3.51 20.57 11.91 28.05 8.4-7.48 12.72-16.68 11.9-28.05 0 0-6.19 .8-11.9-3.95zm0 2.31c4.62 4.06 9.6 3.38 9.64 3.38 .67 9.73-2.84 17.07-9.64 23.47-6.8-6.4-10.3-13.73-9.64-23.47 0 0 5.01 .69 9.64-3.38z"/>
</symbol>
<symbol id="icon-shield-x" viewBox="-2 -2 36 36">
<desc>shield-x</desc>
<path d="m16 0c5.61 4.75 11.69 1.82 11.69 1.82 0 13.61 .24 20.93-1.53 23.58-1.89 2.81-5.92 2.75-10.16 6.61-4.27-3.87-8.31-3.76-10.19-6.61-1.75-2.66-1.49-10.04-1.51-23.58 0 0 6.08 2.93 11.7-1.82zm.1 2.58v13.42h-9.83c.1 4.11 .29 6.65 1.14 7.93 1.61 2.44 4.96 2.24 8.61 5.55v-.04-13.44h9.69c.1-3.13 0-6.7 .1-11.73 0 0-4.94 2.28-9.72-1.69z"/>
</symbol>
<symbol id="icon-shield" viewBox="-2 -2 36 36">
<desc>shield</desc>
<path d="m16 .01c-4.12 1.72-7.52 2.79-12.19 1.06l-2.21 2.28c4.07 4.07 .77 11 .77 15.19 0 4.19 1.04 5.3 2.54 6.58 2.76 2.42 5.82 1.88 8.78 3.95 1.15 .66 1.68 1.84 2.32 2.94 .64-1.1 1.17-2.28 2.32-2.94 2.95-2.07 6.01-1.53 8.78-3.95 1.5-1.28 2.54-2.39 2.54-6.58 0-4.19-3.3-11.12 .77-15.19l-2.21-2.28c-4.67 1.73-8.07 .66-12.19-1.06z"/>
</symbol>
<symbol id="icon-money" viewBox="-2 -2 36 36">
<desc>money</desc>
<path d="m23.91 .6-23.91 13.8 2.88 4.99v-5.26c0-.49 .4-.89 .89-.89h1.99l15.02-8.67c0.57 1.03 2.63 1.54 3.58 .96l3.54 6.15c-.52 .3-.89 .9-1.07 1.56h4.38l-7.3-12.64zm-.94 8.365c-.23 .01-.47 .07-.68 .19-.69 .4-.93 1.29-.53 1.98s1.28 .93 1.97 .53c.69-.4 .93-1.29 .53-1.975-.28-.47-.78-.73-1.29-.72zm-6.39 1.32c-.86-0-1.76 .23-2.6 .71-.97 .56-1.68 1.36-2.1 2.24h8.55c-.07-.39-.2-.76-.41-1.11-.69-1.19-2-1.84-3.44-1.84zm-12.19 5.03v16.08h27.61v-16.08h-27.61zm4.7 1.87h18.21c0 1.175 1.51 2.65 2.62 2.62v7.1c-1.26-.01-2.63 1.51-2.62 2.62h-18.21c0-1.16-1.47-2.63-2.61-2.62v-7.1c1.24 .02 2.62-1.45 2.61-2.62zm9.11 2.17c-2.58 0-4.67 1.79-4.67 4s2.09 4 4.67 4 4.67-1.79 4.67-4-2.09-4-4.67-4zm8.12 2.55c-.8 1e-4 -1.45 .65-1.45 1.45v.01c0 .8 .65 1.45 1.45 1.45 .79 0 1.44-.65 1.44-1.45s-.65-1.45-1.44-1.45v-4e-3zm-16.24 4e-3c-.8 0-1.45 .65-1.45 1.45s.65 1.45 1.45 1.45c.8 0 1.45-.65 1.45-1.45s-.65-1.45-1.45-1.45z"/>
</symbol>
<symbol id="icon-card" viewBox="-2 -2 36 36">
<desc>card</desc>
<path d="m1.4 15.44v7.43c0 1.46 1.19 2.64 2.65 2.64h23.9c1.46 0 2.65-1.18 2.65-2.64v-7.43zm0-6.31v0.21h29.2v-.21c0-1.46-1.19-2.64-2.65-2.64h-23.9c-1.46 0-2.65 1.18-2.65 2.64zm-1.4-.37c0-2.02 1.64-3.66 3.67-3.66h24.66c2.03 0 3.67 1.64 3.67 3.66v14.48c0 2.02-1.64 3.66-3.67 3.66h-24.66c-2.03 0-3.67-1.64-3.67-3.66zm5.11 9.8h16.75v2.59h-16.75zm-1.52-1.43h19.78v5.46h-19.78z"/>
</symbol>
<symbol id="icon-case" viewBox="-2 -2 36 36">
<desc>case</desc>
<path d="m11.5 2.5c-.56 0-1 .44-1 1v4.5h-9.5c-.55 0-1 .44-1 1v19.5c0 .55 .45 1 1 1h30c0.56 0 1-.45 1-1v-19.5c0-.56-.44-1-1-1h-9.5v-4.5c0-.56-.45-1-1-1zm1 2h7v3.5h-7zm-10.5 5.5h28v4.31h-11.49v-.49c0-.56-.45-1.01-1-1.01h-3c-.56 0-1 .44-1 1v0.5h-11.51zm0 6.31h11.51v0.5c0 .55 .44 1 1 1h3c0.55 0 1-.44 1-.99v-.51h11.49v11.19h-28z"/>
</symbol>
<symbol id="icon-bag" viewBox="-2 -2 36 36">
<desc>bag</desc>
<path d="m16 4e-3v0c-1.25 0-2.32 .58-3.04 1.39-.72 .81-1.15 1.82-1.43 2.85-.31 1.17-.43 2.49-.49 3.76h-6.04c-.56 0-.96 .44-1 1l-1.5 22c0 .55 .44 1 1 1h25c.55 0 1.04-.45 1-1l-1.5-22c0-.56-.45-1-1-1h-6.03c-.1-1.25-.18-2.56-.5-3.76-.28-1.03-.71-2.04-1.43-2.85s-1.78-1.39-3.03-1.39zm0 2c.68 0 1.11 .24 1.53 .72 .43 .475 .77 1.214 1 2.04 .25 .94 .36 2.09 .42 3.24h-5.9c.1-1.17 .17-2.33 .42-3.24 .22-.83 .57-1.57 .99-2.04s.85-.72 1.54-.72zm-10 8h5v1.19c0 .55 .45 1 1 1 .55 0 1-.45 1-1v-1.19h5.99v1.19c0 .55 .45 1 1 1 .55 0 1-.45 1-1v-1.19h5l1.5 20h-23z"/>
</symbol>
<symbol id="icon-transport" viewBox="-2 -2 36 36">
<desc>transport</desc>
<path d="m2.2 4.8c-1.21 0-2.2 .99-2.2 2.21v6.1h9.37c0.24 0 .44 .2 .44 .66 0 .24-.2 .44-.44 .44h-9.37v7.9c0 .49 .39 .88 .88 .88h1.01c.43-2.17 2.34-3.8 4.64-3.8 2.29 0 4.2 1.63 4.63 3.8h9.38c0.43-2.17 2.34-3.8 4.64-3.8 2.29 0 4.2 1.63 4.63 3.8h0.42c.93 0 1.77-.89 1.77-1.76v-6.04c0-1.22-3.63-10.39-4.85-10.39zm21.92 2.24h2.68c.56 0 1.74 2.49 2.66 4.73 .29 .73 .25 1.56 .25 1.56 0 .61-.34 1.38-1.4 1.38h-5.05c-.72 0-1.38-.6-1.38-1.38v-4.36c0-1.35 .92-1.93 2.24-1.93zm-10.78 .03h4.93c0.74 0 1.33 .59 1.33 1.32v4.94c0 .73-.59 1.32-1.33 1.32h-4.93c-.73 0-1.33-.59-1.33-1.32v-4.94c0-.73 .6-1.32 1.33-1.32zm8.56 16.86c0-1.81 1.47-3.28 3.28-3.28s3.27 1.47 3.27 3.28c0 1.81-1.46 3.28-3.27 3.28s-3.28-1.47-3.28-3.28zm-18.65 0c0-1.81 1.47-3.28 3.28-3.28 1.8 0 3.27 1.47 3.27 3.28 0 1.81-1.47 3.28-3.27 3.28-1.81 0-3.28-1.47-3.28-3.28z"/>
</symbol>
<symbol id="icon-like" viewBox="-2 -2 36 36">
<desc>like</desc>
<path d="m19.02 1.59c.45-1.14 1.54-.44 2.51 .53s0.9 3.28 .48 4.27c-.92 2.17-2.21 2.7-1.64 5.96 .67 2.305 2.15 .36 8.55 .94 1.01 .2 1.6 .16 2.03 1.32 .56 2.2 1 3.31 1.05 4.6-.29 3.115-.43 6.145-1.18 8.88-0.59 1.46-2.06 1.75-3.21 2.15-1.89 .66-3.54 .75-5.49 .75-2.25 0-9.44-0.81-15.14-1.86v-11.71c0-.14 .3-.31 1.18-.64 1.64-0.1 3.03-2.81 3.85-3.72 3.29-3.64 5.01-6.4 7.01-11.47zm-19.02 15.665c0-.42 .34-.76 .76-.76h3.57c.42 0 .77 .34 .77 .76v11.59c0 .42-.35 .764-.77 .76h-3.57c-.42 0-.76-.342-.76-.76z"/>
</symbol>
<symbol id="icon-badge" viewBox="-2 -2 36 36">
<desc>badge</desc>
<path d="m17.12 0-3.04 2.36-3.17-1.57-1.9 3.34-3.53-.23-.48 3.81-3.35 1.14 1.01 3.7-2.66 2.33 2.36 3.04-1.57 3.17 3.34 1.9-.23 3.54 3.81 .47 1.13 3.36 3.71-1.02 2.33 2.66 3.04-2.36 3.17 1.57 1.9-3.34 3.53 0.24 .48-3.82 3.36-1.13-1.02-3.71 2.66-2.33-2.36-3.03 1.57-3.18-3.34-1.9 .24-3.53-3.82-.48-1.13-3.35-3.71 1.02zm-1.12 4.69c6.24 0 11.31 5.07 11.31 11.31 0 6.25-5.07 11.31-11.31 11.31-6.25 0-11.31-5.06-11.31-11.31 0-6.24 5.06-11.31 11.31-11.31zm0 2.24c-5.01 0-9.07 4.06-9.07 9.07s4.06 9.08 9.07 9.08 9.07-4.07 9.07-9.08-4.06-9.07-9.07-9.07z"/>
</symbol>
<symbol id="icon-circle-o" viewBox="-2 -2 36 36">
<desc>circle-o</desc>
<path d="m16 9.76c-3.44 0-6.23 2.79-6.23 6.24 0 3.45 2.79 6.24 6.23 6.24 3.45 0 6.24-2.79 6.24-6.24 0-3.45-2.79-6.24-6.24-6.24zm0 3.43c1.55 0 2.81 1.26 2.81 2.8 0 1.55-1.26 2.81-2.81 2.81s-2.8-1.26-2.8-2.81c0-1.55 1.25-2.8 2.8-2.8zm0-9.85c-7 0-12.66 5.67-12.66 12.66 0 7 5.67 12.66 12.66 12.66s12.66-5.67 12.66-12.66c0-7-5.67-12.66-12.66-12.66zm0 3.13c5.26 0 9.54 4.27 9.54 9.53 0 5.27-4.28 9.54-9.54 9.54s-9.53-4.27-9.53-9.54c0-5.26 4.27-9.53 9.53-9.53zm0-6.47c8.84 0 16 7.17 16 16 0 8.84-7.16 16-16 16s-16-7.16-16-16c0-8.83 7.16-16 16-16z"/>
</symbol>
<symbol id="icon-arrow-o" viewBox="-2 -2 36 36">
<desc>arrow-o</desc>
<path d="m18.09 7.19c-.77-.77-2.01-.77-2.78 0-.77 .77-.77 2.01 0 2.78l4.06 4.06h-11.5c-1.09 0-1.97 .88-1.97 1.97 0 1.09 .88 1.97 1.967 1.97h11.5l-4.06 4.06c-.77 .77-.77 2.015 0 2.78 .77 .77 2.015 .77 2.78 0l7.42-7.42c.82-.82 .74-2.05 0-2.78zm-2.09-7.19c-8.825 0-16 7.175-16 16s7.175 16 16 16c8.82 0 16-7.175 16-16s-7.176-16-16-16zm0 2c7.74 0 14 6.26 14 14s-6.26 14-14 14-14-6.26-14-14 6.26-14 14-14z"/>
</symbol>
<symbol id="icon-help" viewBox="-2 -2 36 36">
<desc>help</desc>
<path d="m16 0c-8.83 0-16 7.175-16 16s7.17 16 16 16c8.82 0 16-7.2 16-16s-7.2-16-16-16zm0 2c7.74 0 14 6.26 14 14s-6.26 14-14 14-14-6.26-14-14 6.26-14 14-14zm0.36 5.31c-.74-.01-1.55 .11-2.5 .38-1.68 .5-2.3 1.37-2.92 2.5-.43 .78-.66 1.3-.66 3.02h4.11c0-.41 0-.85 .17-1.27 .3-.9 1.5-1.27 2.2-.6 .6 .6 .6 1.3 .36 1.94-.5 1.07-1.46 1.81-2.23 2.67-.86 .92-1.69 2.05-1.59 3.37h4.04c0-.2 .12-.62 .28-.89 .81-1.23 2.2-1.95 3.05-3.14 1-1.2 1.3-2.9 .89-4.4-.47-1.4-1.45-2.6-3.01-3.16-.73-.26-1.42-.41-2.17-.42zm-2.98 13.485v3.89h3.91v-3.89z"/>
</symbol>
<symbol id="icon-warning" viewBox="-2 -2 36 36">
<desc>warning</desc>
<path d="m16 27.53c-1.1 0-1.96-.9-1.96-1.96 0-1.1 .9-1.96 1.96-1.96 1.1 0 1.96 .9 1.96 1.96 0 1.1-.9 1.96-1.96 1.96zm-1.5-5.83-.1-9.7h3.2l-.1 9.7zm1.5-21.7c-.7 0-1.4 .34-1.73 1.03-4.7 9.4-9.4 18.8-14.1 28.17-.62 1.25 .34 2.8 1.74 2.8h28.14c1.4 0 2.36-1.55 1.74-2.8-4.7-9.4-9.4-18.8-14.1-28.17-.34-.7-1.03-1.03-1.73-1.03zm0 2.03c4.66 9.33 9.3 18.65 14 28h-28c4.65-9.3 9.3-18.64 14-28z"/>
</symbol>
<symbol id="icon-info" viewBox="-2 -2 36 36">
<desc>info</desc>
<path d="m4.07 0c-.86 0-1.57 .7-1.57 1.57v23.43c0 1.14 .94 2.07 2.07 2.07h7.51l3.9 4.94 3.9-4.94h7.5c1.14 0 2.1-.93 2.1-2.07v-23.43c0-.86-.7-1.57-1.6-1.57zm-.1 3.8h24v20.5c0 .585-.5 1.07-1.07 1.07h-7.69l-3.24 4.13-3.24-4.13h-7.69c-.6 0-1.07-.48-1.07-1.07zm12 3.07c-1.1 0-1.96 .9-1.96 1.96s0.9 1.96 1.96 1.96 1.96-.9 1.96-1.96-.9-1.96-1.96-1.96zm-4.1 5.83v1.8h2.3v6.1h-2.3v1.8h8.2v-1.8h-2.3v-7.9z"/>
</symbol>
<symbol id="icon-calendar" viewBox="-2 -2 36 36">
<desc>calendar</desc>
<path d="m20.6 24.5c-.6 0-1 .5-1 1v1c0 .6 .5 1 1 1h1c.6 0 1-.5 1-1v-1c0-.6-.5-1-1-1zm4.4-23.5c-.6 0-1 .5-1 1v3c0 .6 .5 1 1 1s1-.5 1-1v-3c0-.6-.5-1-1-1zm-18 0c-.6 0-1 .5-1 1v3c0 .6 .5 1 1 1s1-.5 1-1v-3c0-.6-.5-1-1-1zm18.8 10.9c-.6 0-1 .5-1 1v1c0 .6 .5 1 1 1h1c.6 0 1-.5 1-1v-1c0-.6-.5-1-1-1zm-5.2 0c-.6 0-1 .5-1 1v1c0 .6 .5 1 1 1h1c.6 0 1-.5 1-1v-1c0-.6-.5-1-1-1zm-5.2 0c-.6 0-1 .5-1 1v1c0 .6 .5 1 1 1h1c.6 0 1-.5 1-1v-1c0-.6-.5-1-1-1zm10.4 4.2c-.6 0-1 .5-1 1v1c0 .6 .5 1 1 1h1c.6 0 1-.5 1-1v-1c0-.6-.5-1-1-1zm-5.2 0c-.6 0-1 .5-1 1v1c0 .6 .5 1 1 1h1c.6 0 1-.5 1-1v-1c0-.6-.5-1-1-1zm-5.2 0c-.6 0-1 .5-1 1v1c0 .6 .5 1 1 1h1c.6 0 1-.5 1-1v-1c0-.6-.5-1-1-1zm-5.2 0c-.6 0-1 .5-1 1v1c0 .6 .5 1 1 1h1c.6 0 1-.5 1-1v-1c0-.6-.5-1-1-1zm-5.2 0c-.6 0-1 .5-1 1v1c0 .6 .5 1 1 1h1c.6 0 1-.5 1-1v-1c0-.6-.5-1-1-1zm20.8 4.2c-.6 0-1 .5-1 1v1c0 .6 .5 1 1 1h1c.6 0 1-.5 1-1v-1c0-.6-.5-1-1-1zm-5.2 0c-.6 0-1 .5-1 1v1c0 .6 .5 1 1 1h1c.6 0 1-.5 1-1v-1c0-.6-.5-1-1-1zm-5.2 0c-.6 0-1 .5-1 1v1c0 .6 .5 1 1 1h1c.6 0 1-.5 1-1v-1c0-.6-.5-1-1-1zm-5.2 0c-.6 0-1 .5-1 1v1c0 .6 .5 1 1 1h1c.6 0 1-.5 1-1v-1c0-.6-.5-1-1-1zm-5.2 0c-.6 0-1 .5-1 1v1c0 .6 .5 1 1 1h1c.6 0 1-.5 1-1v-1c0-.6-.5-1-1-1zm10.4 4.2c-.6 0-1 .5-1 1v1c0 .6 .5 1 1 1h1c.6 0 1-.5 1-1v-1c0-.6-.5-1-1-1zm-5.2 0c-.6 0-1 .5-1 1v1c0 .6 .5 1 1 1h1c.6 0 1-.5 1-1v-1c0-.6-.5-1-1-1zm-5.2 0c-.6 0-1 .5-1 1v1c0 .6 .5 1 1 1h1c.6 0 1-.5 1-1v-1c0-.6-.5-1-1-1zm-3.4-21c-.9 0-1.6 .7-1.6 1.6v23.9c0 1.14 .94 2.1 2.1 2.1h27.9c1.13 0 2.1-.9 2.1-2.1v-23.9c0-.9-.7-1.6-1.6-1.57h-2.9v1.5c0 1.4-1.14 2.5-2.5 2.5s-2.5-1.14-2.5-2.5v-1.5h-13v1.5c0 1.4-1.14 2.5-2.5 2.5s-2.5-1.14-2.5-2.5v-1.5zm-.1 6h29v18.7c0 .6-.5 1.1-1.1 1.1h-26.9c-.6 0-1.1-.5-1.1-1.1z"/>
</symbol>
<symbol id="icon-clock" viewBox="-2 -2 36 36">
<desc>clock</desc>
<path d="m16 0c-8.8 0-16 7.2-16 16s7.2 16 16 16 16-7.2 16-16-7.2-16-16-16zm-11.26 15.99c0-.9-.7-1.64-1.64-1.64 .3-2.24 1.16-4.43 2.615-6.3 .64 .64 1.7 .6 2.3 0 .64-.64 .65-1.67 0-2.3 1.9-1.46 4.1-2.3 6.3-2.6 0 .9 .74 1.64 1.64 1.64 .9 0 1.64-.73 1.64-1.64 2.25 .3 4.43 1.16 6.3 2.6-.64 .64-.6 1.7 .02 2.32s1.7 .65 2.3 0.02c1.45 1.86 2.3 4.03 2.6 6.25-1 0-1.63 .77-1.64 1.63 0 .9 .7 1.64 1.64 1.64-.3 2.26-1.16 4.46-2.63 6.35-.64-.64-1.7-.63-2.3 0-.64 .64-.65 1.67 0 2.3-1.9 1.5-4.07 2.34-6.3 2.6 0-.9-.75-1.63-1.64-1.64-.94 0-1.65 .7-1.65 1.63-2.24-.3-4.4-1.16-6.3-2.6 .64-.64 .6-1.7-.02-2.3s-1.7-.64-2.3-.02c-1.46-1.87-2.3-4.06-2.6-6.3 .9 0 1.63-.75 1.64-1.65zm9.6-6.4v6.56c0 .4 .2 .74 .5 1.02l5.51 5.5c.64 .63 1.7 .6 2.3-.02s.65-1.67 0-2.32l-5.02-5.03v-5.73c0-.9-.74-1.63-1.64-1.63s-1.64 .73-1.65 1.63z"/>
</symbol>
<symbol id="icon-book" viewBox="-2 -2 36 36">
<desc>book</desc>
<path d="m13.14 1e-3c-.51 .02-.97 .43-.97 1v1.21c-.48 .44-4.24 .72-4.91 .84l-.78-.445c-.67-.38-1.5 .1-1.5 .865v20.31c0 .49 .17 .65 .53 .855l11.55 7.03c0.59 .34 1.47 .38 1.98 .31 2.23-.2 6.38-1.245 7.71-2.71 .15-.18 .23-.4 .23-.63v-20.59c0-.4-.23-.7-.54-.88l-12.78-7.03c-.17-.09-.35-.13-.52-.12zm1.08 2.25 10.41 5.71c-.27 1.12-4.31 1.68-6.19 1.5l-9.29-5.33c1.06 0 4.9-.335 5.07-1.88zm-7.17 2.95 10.24 5.89v5.19c-.31 .69-.305 1.29-.01 1.99l0.01 4.44c-.31 .7-.3 1.35-.01 2v4.7l-10.25-6.2zm17.92 9.76c-1.31 1.21-3.34 1.42-5.7 1.45v-5.21c1.14 .14 5.2-.33 5.7-1.08zm0 6.33c-1.33 1.2-3.37 1.47-5.72 1.52v-4.39c1.96-.01 4.01-.12 5.72-1.02zm0 6.89c-.59 .92-4.45 1.755-5.73 1.52v-4.89c1.97-.02 4-.18 5.71-1.08z"/>
</symbol>
<symbol id="icon-book-open" viewBox="-2 -2 36 36">
<desc>book-open</desc>
<path d="m24.38 0-8.43 8-8.78-7.91v2.92l-3.94-2.43v3.73l-.22-.05c-1.74-.35-3.04 1.01-3.04 2.47v18.2c0 1.56 1.16 2.8 2.63 3.12l10.56 2.29c.71 .19 1.225 1.66 1.835 1.66h1.9c0.7 0 1.13-1.46 1.88-1.66l10.56-2.29c1.46-.32 2.63-1.56 2.63-3.12v-18.2c0-1.56-1.49-2.8-3.05-2.46l-.51 .11v-3.82l-4.04 2.55zm-19.18 4.1 1.59 .98-1.59-.35zm21.24 .02v0.675l-1.63 .355zm3.55 2.6v18.2c0 .475-.51 1.07-1.07 1.2l-10.56 2.29c-.3 .07-.45 .24-.67 .38v-19.13c0-.48 .5-1.06 1.08-1.19l10.565-2.3c0.38-.1 .66 0 .66 .54zm-27.4-.54 10.56 2.29c0.59 .13 1.08 .71 1.08 1.19v19.13c-.21-.13-.36-.315-.67-.38l-10.56-2.29c-.57-.125-1.07-.72-1.07-1.2v-18.2c0-.72 .53-.57 .66-.54z"/>
</symbol>
<symbol id="icon-agenda" viewBox="-2 -2 36 36">
<desc>agenda</desc>
<path d="m4.23 0c-.55 0-1 .45-1 1v4h-1.5c-.55 0-1 .45-1 1s.45 1 1 1h1.5v2h-1.5c-.55 0-1 .45-1 1s.45 1 1 1h1.5v2h-1.5c-.55 0-1 .45-1 1s.45 1 1 1h1.5v2h-1.5c-.55 0-1 .45-1 1s.45 1 1 1h1.5v2h-1.5c-.55 0-1 .45-1 1s.45 1 1 1h1.5v2h-1.5c-.55 0-1 .45-1 1s.45 1 1 1h1.5v4c0 .55 .45 1 1 1h26c.55 0 1-.45 1-1v-30c0-.55-.45-1-1-1zm1 2h24v28h-24v-3h1.5c.55 0 1-.45 1-1s-.45-1-1-1h-1.5v-2h1.5c.55 0 1-.45 1-1s-.45-1-1-1h-1.5v-2h1.5c.55 0 1-.45 1-1s-.45-1-1-1h-1.5v-2h1.5c.55 0 1-.45 1-1s-.45-1-1-1h-1.5v-2h1.5c.55 0 1-.45 1-1s-.45-1-1-1h-1.5v-2h1.5c.55 0 1-.45 1-1s-.45-1-1-1h-1.5zm6.19 2c-.55 0-1 .45-1 1v7c0 .55 .45 1 1 1h11.6c.55 0 1-.45 1-1v-7c0-.55-.45-1-1-1zm1 2h9.6v5h-9.6z"/>
</symbol>
<symbol id="icon-pen-1" viewBox="-2 -2 36 36">
<desc>pen-1</desc>
<path d="m16 0 3.65 7.64v23.21c-1.84 1.52-5.23 1.53-7.3 .03v-23.25zm2.71 27.59c-1.45 .76-3.91 .72-5.38-.08v2.71c1.54 .88 3.99 .875 5.36 0zm-2.01-24-1.36 .03-2.06 4.03c.25 2.08 1.39 1.04 1.61-.02 .15 1.51 1.96 1.73 2.21-.01 .19 1.653 1.5 1.6 1.61 .02z"/>
</symbol>
<symbol id="icon-pencil-1" viewBox="-2 -2 36 36">
<desc>pencil-1</desc>
<path d="m19.2 8.94c-.27 .88-1.13 .82-1.41 .42v16.24c0.43-.12 1.12-.26 1.42-.44zm-2.36 .428c-.26 .54-1.34 .53-1.59 0v16.31c.38 .1 1.18 .12 1.56 .04zm-2.57 0c-.44 .52-1.31 .36-1.46-.42v16.205c.44 .171 1.14 .3 1.49 .39zm1.94-9.23 3.94 7.39v22.76c0 2.185-8.3 2.37-8.3 .03v-22.79l3.96-7.39c.18-.26 .4-.07 .4 0zm2.95 27.18c-1.54 .67-4.78 .67-6.3 0v2.36c0 1.73 6.27 1.58 6.28 0zm-2.37-24.035h-1.6l-2.27 4.2c-.27 .48 .18 1.18 .77 1.18 .57 0 1.07-1.184 1.17-1.18 .11 0 .4 1.24 1.17 1.24 .75 0 1.04-1.24 1.15-1.24s.59 1.17 1.18 1.18c0.57 0 1.04-.66 .76-1.18z"/>
</symbol>
<symbol id="icon-pen-2" viewBox="-2 -2 36 36">
<desc>pen-2</desc>
<path d="m0 32 5.33-9.49 22.4-22.51c2.58 .09 4.01 1.516 4.27 4.23l-22.45 22.52zm25.88-29.124c1.65 .42 2.69 1.529 3.11 3.27l2.07-2.07c-.39-1.85-1.46-2.91-3.16-3.19zm-22.89 25.245 .93 .91 5.12-2.77c1.37-1.38 .54-2.43-.12-3.09-.67-.67-1.77-1.49-3.13-.125z"/>
</symbol>
<symbol id="icon-pencil-2" viewBox="-2 -2 36 36">
<desc>pencil-2</desc>
<path d="m0 32 4.17-10.02 21.97-21.98c2.55 0.4 5.27 3.11 5.86 5.82l-21.99 22zm24.24-28.59c1.69 .62 3.62 2.61 4.26 4.37l2.26-2.27c-.61-1.86-2.58-3.82-4.3-4.3zm-18.35 18.36c.81-.43 1.38 .22 1.28 .69l16.63-16.74c-.37-.21-.89-.53-1.23-.61zm1.97 1.36c.57-.2 1.25 .5 1.05 1.05l16.67-16.785c-.19-.34-.67-.84-.99-1.06zm1.73 1.73c.68-.06 1.11 .6 .67 1.26l16.6-16.71c-.17-.44-.53-.96-.7-1.26zm-7.19 3.62 1.11 1.07 5.77-2.46c1.27-1.67-.38-1.85-1.32-1.29 .96-1.18-.34-2.78-1.76-1.75 1-1.33-.1-2.33-1.28-1.31z"/>
</symbol>
<symbol id="icon-rule" viewBox="-2 -2 36 36">
<desc>rule</desc>
<path d="m27.6 8.74-2.88-2.88 .85-.84 2.88 2.88zm-1.9 1.91-1.76-1.76 .85-.84 1.75 1.76zm-1.99 1.99-1.75-1.76 .84-.84 1.76 1.76zm-1.99 1.98-1.75-1.755 .85-.84 1.75 1.755zm-1.98 1.99-1.76-1.76 .85-.84 1.75 1.75zm-1.99 1.98-2.88-2.88 .85-.84 2.88 2.88zm-1.98 1.98-1.75-1.76 .84-.84 1.76 1.76zm-1.98 1.98-1.76-1.76 .84-.84 1.76 1.76zm-1.98 1.98-1.76-1.76 .84-.84 1.76 1.76zm-3.97 3.97-2.88-2.88 .84-.84 2.88 2.88zm1.98-1.98-1.75-1.76 .84-.84 1.75 1.76zm-7.97-2.32 5.95 5.95 22.35-22.36-5.96-5.95zm-1.86 0 24.19-24.2 7.81 7.8-24.19 24.2z"/>
</symbol>
<symbol id="icon-brush" viewBox="-2 -2 36 36">
<desc>brush</desc>
<path d="m14.68 13.44c.73-.73 15.75-14.9 17.22-13.32 1.46 1.59-12.34 16.76-13.09 17.51zm3.17 5.12-5.85 4.85-3.03-3.07 4.73-5.93zm-9.6 2.68 2.9 2.83c.58 3.73-3.91 7.93-11.15 7.93 2.66-2.66 1.71-10.76 8.247-10.76z"/>
</symbol>
<symbol id="icon-palette" viewBox="-2 -2 36 36">
<desc>palette</desc>
<path d="m20.15 7.63c-3.23 .73-2.45 6.05 1.33 5.25 3.59-.78 2.27-6.03-1.33-5.25zm.52 1.93c1-.19 1.25 1.21 .35 1.41-.96 .18-1.3-1.16-.35-1.41zm-13.33-5.35c-3.23 .74-2.45 6.04 1.33 5.25 3.58-.78 2.26-6.03-1.33-5.25zm.52 1.94c.99-.19 1.24 1.19 .34 1.39-.95 .19-1.3-1.16-.34-1.39zm15.94 7.31c-3.23 .74-2.44 6.05 1.34 5.26 3.58-.79 2.26-6.03-1.34-5.26zm.52 1.94c1-.19 1.25 1.2 .35 1.4-.95 .19-1.3-1.16-.35-1.4zm-10.25-11.37c-3.23 .74-2.45 6.04 1.33 5.26 3.59-.78 2.27-6.04-1.33-5.26zm.52 1.94c1-.19 1.25 1.21 .35 1.4-.96 .19-1.3-1.16-.35-1.4zm-9.21 4.63c-3.23 .75-2.45 6.05 1.33 5.26 3.59-.78 2.27-6.04-1.33-5.26zm.52 1.94c1-.18 1.25 1.2 .35 1.4-.96 .18-1.3-1.16-.35-1.4zm2.89 6.6c-.72 .97-.9 2.29-.54 3.44 .55 2.1 2.39 3.86 4.58 4.06 1.03 .1 2.2-.1 2.88-.97 .88-1.02 1.04-2.51 .67-3.77-.49-1.84-1.9-3.51-3.77-3.99-1.75-.35-3.13 .17-3.82 1.23zm5.3 2.43c.84 2.07 .48 3.61-1.68 2.86-1.34-.44-2.3-1.79-2.36-3.18 0-.65 .4-1.34 1.07-1.44 1.169-.31 2.54 .75 2.97 1.76zm-12.36-16.41c-2.52 4.29-2.1 9.74 0 14.13 2.19 4.91 5.8 9.3 10.54 11.91 1.66 .92 3.98 1.3 5.54-.24 1.57-1.54 2.51-3.34 2-6.12-.1-1.52 2.04-1.4 2.52 .15 .73 1.71 1.95 3.5 3.94 3.77 2.01 .63 3.98-.7 4.579-2.63 1.99-4.64 1.22-10.08-1.06-14.47-3.74-6.47-10.7-11.64-20.76-11.64-3.41 0-5.98 2.81-7.3 5.14zm7.63-3.17c5.27 0 10.42 2.02 14.45 5.27 4.9 4.19 7.59 11.37 5.41 17.63-.26 1.93-2.62 2.7-3.9 1.21-1.34-1.33-1.46-3.87-3.6-4.341-2.34-.47-4.55 1.05-3.86 4.18 .37 1.85-1.01 4.28-3.09 4-5.77-1.35-12.12-10.2-12.72-17.08-.3-4.7 2.23-10.87 7.31-10.87z"/>
</symbol>
<symbol id="icon-grunepunkte" viewBox="-2 -2 36 36">
<desc>grunepunkte</desc>
<path d="m16 0c-8.62 .01-16 7.21-16 16 0 8.77 7.25 15.98 16 16 8.72 0 16-7.19 16-16 0-8.85-7.39-16-16-16zm0 1c7.24 0 13.13 6.07 13.13 13.6 0 7.52-5.89 13.69-13.15 13.69v1.99c-3.58-1.21-6.54-3.79-8.73-7.49 2.37-3.71 4.73-6.03 8.74-7.7v1.87c3.37-1.425 6.62-3.79 8.74-7.71-1.98-3.38-4.91-5.83-8.74-7.6v1.85c-7.54 0-13.66 6.12-13.66 13.91 0 4.26 1.84 8.08 4.74 10.66-3.71-2.73-6.11-7.12-6.11-12.07 0-8.86 7.31-15 15.04-15z"/>
</symbol>
<symbol id="icon-recycle" viewBox="-2 -2 36 36">
<desc>recycle</desc>
<path d="m17.17 10.8 7.31 .13 3.42-6.49-2.3 1.31s-1.3-2.36-1.96-3.55c-.14-.25-.42-.85-.68-1.04-.34-.3-1.12-.58-1.74-.56h-6.72s.4 .64 .63 .99l4.64 7.79zm-11.54-3.07 6.29 3.64 4.07-7.06c-.53-.91-1.07-1.84-1.61-2.76-.32-.55-.67-.94-1.21-.94-1.23 0-3.49-.14-4.04 1.04zm5.62 10.01-3.53-6.4-7.33 .28 2.29 1.34s-1.39 2.3-2.09 3.47c-.15 .25-.53 .79-.56 1.11-.1 .45 .1 1.26 .38 1.79l3.36 5.83s.35-.67 .54-1.043l4.421-7.91zm3.12 11.55v-7.28h-8.14c-.53 .92-1.07 1.85-1.59 2.77-.31 .56-.45 1.04-.21 1.53 .54 1.11 1.5 3 2.93 2.98zm5.46-10.26-3.77 6.27 3.91 6.21v-2.66s2.69 .06 4.04 .08c.29 0 .95 .06 1.24-.07 .44-.15 1.07-.69 1.36-1.23l3.36-5.83s-.75 .03-1.17 .06l-9.06 .13zm8.43-8.47-6.29 3.64 4.07 7.06h3.19c.64 0 1.13-.13 1.43-.58 .68-1.02 1.84-2.8 1.11-4.03z"/>
</symbol>
<symbol id="icon-recycle-o" viewBox="-2 -2 36 36">
<desc>recycle-o</desc>
<path d="m31.65 17.8c.46-.81 .43-1.82 .1-2.44l-3.84-6.64-7.14 4.23 3.92 7.05-3.95 .03 .1-4.63-1.91 3.48-2.74 5 4.58 8.125v-4.09l3.66 .07c1.25 0 1.83-.56 2.4-1.57zm-2.13 1.75c-.2 .29-.41 .38-.7 .41l-3.04 .02-3.71-6.67 5.46-3.23 3.35 5.78c.23 .41 .18 1.01-.15 1.59-.35 .63-.75 1.39-1.21 2.1zm-.79 1.43-2.8 4.95c-.28 .49-.72 1-1.17 1l-5.03-.04v1.46l-2.46-4.475 2.47-4.51v1.67zm-17.78-20.97c-.94 0-1.8 .53-2.16 1.16l-3.79 6.71 7.3 4.19 4.11-6.99 2.04 3.47-4.05 2.24 3.98-.06 5.73-.08 4.89-8.21-3.73 2.15-1.81-3.27c-.68-1-1.41-1.33-2.58-1.33zm2.6 1.01c.35 .03 .54 .17 .71 .41l1.56 2.68-3.88 6.61-5.58-3.2 3.3-5.84c.23-.41 .78-.67 1.45-.67 .72 0 1.59-.03 2.44 .02zm1.64-.02h5.72c.56 0 1.18 .05 1.4 .44l2.58 4.55 1.28-.74-2.63 4.43-5.17 .07 1.46-.81zm-8.87 26.09c.45 .81 1.31 1.29 2 1.29l7.42-.07v-8.42l-7.8-.06 1.91-3.5 3.83 2.39-1.97-3.42-2.83-4.92-8.88-.02 3.27 2.05-1.85 3.2c-.61 1.1-.43 1.89 .13 2.9zm-.41-2.75c-.15-.32-.12-.55 0-.82l1.47-2.7 7.38 .06v6.43l-6.46 .06c-.45 0-.93-.34-1.25-.92zm-.81-1.41-2.75-4.95c-.28-.49-.48-1.14-.26-1.53l2.5-4.42-1.24-.74 4.96 .07 2.55 4.44-1.38-.86z"/>
</symbol>
<symbol id="icon-cloud" viewBox="-2 -2 36 36">
<desc>cloud</desc>
<path d="m15.98 8c-4.15 .01-7.6 3.19-7.95 7.32-.57-.3-1.21-.45-1.85-.45-2.21 0-4 1.79-4 4 0 .4 .06 .79 .18 1.17-.12-.02-.25-.04-.38-.04-1.11 0-2 .9-2 2s0.9 2 2 2h28c1.11 0 2-.9 2-2-0-.94-.66-1.75-1.58-1.95 .24-.66 .37-1.35 .38-2.05 0-3.31-2.69-6-6-6-.59 0-1.17 .09-1.73 .26-1.39-2.62-4.11-4.26-7.07-4.26z"/>
</symbol>
<symbol id="icon-contrast" viewBox="-2 -2 36 36">
<desc>contrast</desc>
<path d="m15.98 2.45c-7.96 0-13.55 5.6-13.55 13.55 0 7.95 5.6 13.55 13.55 13.56zm-16 13.55c0-8.84 7.17-16 16-16 8.84 0 16 7.16 16 16s-7.16 16-16 16c-8.83 0-16-7.165-16-16z"/>
</symbol>
<symbol id="icon-lum-less" viewBox="-2 -2 36 36">
<desc>lum-less</desc>
<path d="m27.31 4.69c-.47-.47-1.17-.43-1.64 .04l-4.6 4.6c-.47 .47-.51 1.17-.04 1.64 .47 .47 1.18 .42 1.64-.04l4.6-4.6c0.47-.47 .51-1.17 .04-1.64zm-22.63 0c.47-.47 1.17-.43 1.64 .04l4.6 4.6c.47 .47 .51 1.17 .04 1.64-.47 .47-1.18 .42-1.64-.04l-4.6-4.6c-.47-.47-.51-1.17-.04-1.64zm11.31 6.81c-2.47 0-4.5 2.03-4.5 4.5 0 2.47 2.03 4.5 4.5 4.5s4.5-2.03 4.5-4.5c0-2.47-2.03-4.5-4.5-4.5zm0 2c1.39 0 2.5 1.11 2.5 2.5 0 1.39-1.11 2.5-2.5 2.5s-2.5-1.11-2.5-2.5c0-1.39 1.11-2.5 2.5-2.5zm0-13.5c-.66 0-1.13 .53-1.13 1.19v6.51c0 .66 .47 1.19 1.13 1.19s1.13-.53 1.13-1.19v-6.51c0-.66-.47-1.19-1.13-1.19zm0 32c-.66 0-1.13-.53-1.13-1.19v-6.51c0-.66 .47-1.19 1.13-1.19s1.13 .53 1.13 1.19v6.51c0 .66-.47 1.19-1.13 1.19zm16-16c0-.66-.53-1.13-1.19-1.13h-6.5c-.66 0-1.19 .47-1.19 1.13 0 .66 .53 1.13 1.19 1.13h6.5c0.66 0 1.19-.47 1.19-1.13zm-32 0c0-.66 .53-1.13 1.19-1.13h6.51c0.66 0 1.19 .47 1.19 1.13 0 .66-.53 1.13-1.19 1.13h-6.51c-.66 0-1.19-.47-1.19-1.13zm27.31 11.31c-.47 .47-1.17 .43-1.64-.04l-4.6-4.6c-.47-.47-.51-1.17-.04-1.64 .47-.47 1.18-.42 1.64 .04l4.6 4.6c.47 .47 .51 1.17 .04 1.64zm-22.63 0c.47 .47 1.17 .43 1.64-.04l4.6-4.6c.47-.47 .51-1.17 .04-1.64-.47-.47-1.18-.42-1.64 .04l-4.6 4.6c-.47 .47-.51 1.17-.04 1.64z"/>
</symbol>
<symbol id="icon-lum-more" viewBox="-2 -2 36 36">
<desc>lum-more</desc>
<path d="m4.69 4.69c-.47 .47-.42 1.17 .04 1.64l1.77 1.77c.47 .47 1.17 .51 1.64 .04 .47-.47 .42-1.18-.04-1.64l-1.77-1.77c-.47-.47-1.17-.51-1.64-.04zm19.22 20.81c-.47-.47-.51-1.17-.04-1.64 .47-.47 1.18-.42 1.64 .04l1.77 1.77c.46 .46 .51 1.17 .04 1.64-.47 .47-1.17 .43-1.64-.04zm0-18.99c-.47 .47-.51 1.17-.04 1.64 .46 .46 1.18 .42 1.64-.05l1.77-1.77c.47-.47 .51-1.17 .04-1.64-.47-.47-1.16-.44-1.64 .04zm-17.4 17.4c.46-.46 1.17-.51 1.64-.04 .46 .46 .415 1.18-.045 1.64l-1.77 1.77c-.47 .47-1.17 .51-1.64 .04-.47-.47-.43-1.16 .04-1.64zm9.5-23.9c-.66 0-1.13 .53-1.13 1.19v2.51c0 .66 .47 1.19 1.13 1.19s1.13-.53 1.13-1.19v-2.51c0-.66-.47-1.19-1.13-1.19zm0 32c-.66 0-1.13-.53-1.13-1.19v-2.51c0-.66 .47-1.19 1.13-1.19s1.13 .53 1.13 1.19v2.51c0 .66-.47 1.19-1.13 1.19zm16-16c0-.66-.53-1.13-1.19-1.13h-2.51c-.66 0-1.19 .47-1.19 1.13 0 .66 .54 1.13 1.19 1.13h2.51c.66 0 1.19-.47 1.19-1.13zm-32 0c0-.66 .53-1.13 1.19-1.13h2.51c.65 0 1.19 .47 1.19 1.13 0 .66-.54 1.13-1.19 1.13h-2.51c-.66 0-1.19-.47-1.19-1.13zm16-8.95c-4.94 0-8.95 4-8.95 8.95 0 4.95 4.01 8.95 8.95 8.95s8.95-4 8.95-8.95c0-4.94-4.01-8.95-8.95-8.95zm0 2.21c3.72 0 6.74 3.02 6.74 6.73 0 3.72-3.02 6.74-6.74 6.74s-6.74-3.02-6.74-6.74c0-3.72 3.02-6.73 6.74-6.73z"/>
</symbol>
<symbol id="icon-star-o" viewBox="-2 -2 36 36">
<desc>star-o</desc>
<path d="m11.15 10.71-9.25 .19c-1.67 0-2.68 2.2-1.14 3.48l7.37 5.59-2.68 8.86c-.5 2.03 1.64 3.07 2.96 2.15l7.59-5.29 7.6 5.29c1.68 1.05 3.41-.54 2.96-2.14l-2.68-8.88 7.36-5.59c1.35-1.05 .86-3.42-1.13-3.48l-9.24-.19-3.04-8.72c-.6-1.72-3.08-1.74-3.66 .01zm4.87-7.9 3.43 9.87 10.45 .22-8.33 6.32 3.03 10.01-8.59-5.98-8.59 5.98 3.03-10.02-8.34-6.32 10.47-.22z"/>
</symbol>
<symbol id="icon-star-half" viewBox="-2 -2 36 36">
<desc>star-half</desc>
<path d="m11.15 10.71-9.25 .19c-1.67 0-2.68 2.2-1.14 3.48l7.37 5.59-2.68 8.86c-.5 2.03 1.64 3.07 2.96 2.15l7.59-5.29 7.6 5.29c1.68 1.05 3.41-.54 2.96-2.14l-2.68-8.88 7.36-5.59c1.35-1.05 .86-3.42-1.13-3.48l-9.24-.19-3.04-8.72c-.6-1.72-3.08-1.74-3.66 .01zm4.87-7.9v20.44l-8.59 5.98 3.03-10.02-8.34-6.32 10.47-.22z"/>
</symbol>
<symbol id="icon-star" viewBox="-2 -2 36 36">
<desc>star</desc>
<path d="m11.14 10.71-9.25 .19c-1.67 0-2.67 2.2-1.13 3.48l7.37 5.59-2.68 8.86c-.5 2.03 1.64 3.07 2.96 2.145l7.59-5.29 7.6 5.29c1.67 1.05 3.4-.54 2.95-2.14l-2.68-8.88 7.36-5.59c1.36-1.05 .87-3.42-1.13-3.48l-9.24-.19-3.03-8.72c-.6-1.72-3.08-1.74-3.66 .01z"/>
</symbol>
<symbol id="icon-signal" viewBox="-2 -2 36 36">
<desc>signal</desc>
<path d="m16 22.105c-1.46 0-2.88 .53-3.98 1.49l3.98 4.56 3.99-4.56c-1.11-.96-2.52-1.49-3.99-1.49zm0-4.56c-2.57 0-5.05 .93-6.98 2.62l-3.01-3.43c2.77-2.42 6.32-3.75 9.99-3.75 3.68 0 7.23 1.33 9.99 3.75l-2.99 3.43c-1.94-1.69-4.43-2.61-7-2.61zm13-4.25c-3.6-3.14-8.22-4.88-13-4.88s-9.39 1.73-12.99 4.88l-3.01-3.43c4.43-3.87 10.12-6.01 16-6.01 5.89 0 11.57 2.14 16 6.01z"/>
</symbol>
<symbol id="icon-phone" viewBox="-2 -2 36 36">
<desc>phone</desc>
<path d="m.18 8.23c.65 2.09 4.06 9.01 9.23 14.192 5.17 5.18 12.11 8.63 14.26 9.35 4.31 1.45 9.41-4.43 8.12-7.04-1.29-2.6-6.5-6.05-8.38-5.33-1.88 .72-2.05 4.37-4.79 3.45-2.74-.93-8.56-6.77-9.48-9.51-.93-2.74 2.8-2.85 3.44-4.79 .64-1.94-3.22-7.6-5.38-8.46-2.15-.86-8.34 3.95-7.02 8.13z"/>
</symbol>
<symbol id="icon-phone-talk" viewBox="-2 -2 36 36">
<desc>phone-talk</desc>
<path d="m17.76 7.42c-.54-.12-1.08 .22-1.2 .76-.12 .54 .22 1.07 .76 1.19 2.78 .62 4.82 2.75 5.28 5.59 .1 .55 .6 .915 1.15 .82 .55-.09 .92-.6 .83-1.15-.6-3.6-3.24-6.42-6.82-7.22zm-1.77-7.42c-.55-5.52e-6 -1 .45-1 1 0 .55 .45 1 1 1 7.74 0 14 6.26 14 14 0 .55 .45 1 1 1s1-.45 1-1c0-8.83-7.18-16-16-16zm.92 3.72c-.55-.03-1.02 .4-1.05 .95-.03 .55 .4 1.02 .95 1.05 5.2 .26 9.32 4.46 9.47 9.69 .02 .55 .48 .99 1.03 .97 .55-.02 .99-.48 .97-1.03-.19-6.25-5.15-11.31-11.37-11.63zm-16.73 4.51c.65 2.09 4.06 9.01 9.23 14.19 5.18 5.18 12.11 8.63 14.26 9.35 4.31 1.45 9.41-4.43 8.12-7.04-1.28-2.61-6.5-6.05-8.38-5.33s-2.05 4.37-4.78 3.45c-2.73-.93-8.57-6.77-9.49-9.51-.93-2.74 2.81-2.85 3.45-4.79 .63-1.95-3.23-7.6-5.39-8.46-2.14-.86-8.34 3.95-7.02 8.13z"/>
</symbol>
<symbol id="icon-mobile-1" viewBox="-2 -2 36 36">
<desc>mobile-1</desc>
<path d="m9.69 0c-1.44 0-2.61 1.17-2.61 2.61v26.78c0 1.45 1.17 2.61 2.61 2.61h12.58c1.44 0 2.61-1.17 2.61-2.61v-26.78c0-1.45-1.17-2.61-2.61-2.61zm3.53 1.67c0.3 0 .36 .69 1.02 .67h3.48c.66 .02 .72-.67 1.01-.67h3.42c.7 0 .99 .5 .99 1v22.49c0 .56-.45 1-1.01 1h-12.34c-.56 0-1.01-.45-1.01-1v-22.49c0-.44 .37-1 1.01-1zm2.76 25.62c1.05 0 1.8 .75 1.8 1.8 0 1.05-.75 1.8-1.8 1.8s-1.8-.75-1.8-1.8c0-1.05 .75-1.8 1.8-1.8z"/>
</symbol>
<symbol id="icon-mobile-2" viewBox="-2 -2 36 36">
<desc>mobile-2</desc>
<path d="m8.73 1e-3c-.9 0-1.64 .73-1.64 1.64v28.71c0 .91 .73 1.65 1.64 1.65h14.5c.92 0 1.66-.73 1.65-1.65v-28.71c0-.91-.73-1.65-1.65-1.65zm7.25 .89c.53 0 .95 .43 .95 .95 0 .52-.42 .95-.95 .95-.52 0-.94-.43-.94-.95 0-.52 .42-.95 .94-.95zm-7.25 .91h5.22c0 1.11 .91 2.02 2.03 2.02s2.03-.91 2.04-2.02h5.21v24.69l-14.5-.06zm4.98 26.48h4.55c.46 0 .92 .47 .92 .93 0 .46-.47 .93-.92 .93h-4.55c-.45 0-.93-.47-.92-.92 0-.46 .47-.93 .92-.93z"/>
</symbol>
<symbol id="icon-tablet" viewBox="-2 -2 36 36">
<desc>tablet</desc>
<path d="m15.97 26.35c1.13 0 2.03 .92 2.03 2.03 0 1.12-.9 2.04-2.03 2.04s-2.03-.92-2.03-2.04c0-1.12 .9-2.03 2.03-2.03zm9.68-24.63v23.09l-19.36-.06v-22.97zm-19.36-1.71c-.91 0-1.64 .74-1.64 1.65v28.71c0 .91 .73 1.65 1.64 1.65h19.37c.92 0 1.65-.73 1.65-1.65v-28.7c0-.91-.73-1.65-1.65-1.65z"/>
</symbol>
<symbol id="icon-laptop" viewBox="-2 -2 36 36">
<desc>laptop</desc>
<path d="m28.08 3.5h-24.13c-.55 0-1 .45-1 1v16.18c0 .55 .45 1 1 1h-.84c-1.48 2.56-2.94 5.12-3.08 5.77-.21 .93 1 1 1.79 1h28.2c.78 0 2.07 .11 1.98-.82-.15-.77-1.52-3.28-3.07-5.96h-.85c.55 0 1-0.45 1-1v-16.18c0-.55-.45-1-1-1zm-23.13 2h22.13v14.18h-22.13zm20.87 16.98c.56 0 .99 .45 .99 1 0 .56-.45 1-.99 1h-19.62c-.54 0-1-.45-1-1 0-.56 .45-1 .99-1z"/>
</symbol>
</defs>
</svg>